<svg xmlns="http://www.w3.org/2000/svg">
<defs>
<font id="ParaTypeLtd: PT Sans Caption: 2010" horiz-adv-x="1263"><font-face font-family="PT Sans Caption" font-weight="400" font-stretch="normal" units-per-em="1000" panose-1="2 11 6 3 2 2 3 2 2 4" ascent="1018" descent="-276" x-height="4" bbox="-191 -230 1208 871" underline-thickness="50" underline-position="-125" unicode-range="U+0020-2215" /><missing-glyph horiz-adv-x="750" d="M50 700 l650 0 l0 -700 l-650 0 l0 700 ZM570 620 l-195 -217 l-195 217 l-50 -50 l197 -220 l-197 -220 l50 -50 l195 217 l195 -217 l50 50 l-198 220 l198 220 l-50 50 ZM129 27 l8 0 l0 12 l4 0 q6 0 11 2.5 q5 2.5 5 9.5 q0 8 -5.5 10 q-5.5 2 -11.5 2 l-11 0 l0 -36 ZM141 57 q8 0 8 -5 q0 -5 -2.5 -5.5 q-2.5 -0.5 -6.5 -0.5 l-3 0 l0 11 l4 0 ZM189 63 l-31 0 l0 -6 l12 0 l0 -30 l7 0 l0 30 l12 0 l0 6 ZM222 37 q0 -4 -7 -4 q-7 0 -9 2 l-3 -7 q2 0 5 -1 q3 -1 8 -1 q14 0 14 12 q0 9 -9 10 q-9 1 -9 6 q0 3 6 3 q5 0 9 -2 l2 7 q-6 2 -11 2 q-14 0 -14 -11 q0 -5 3 -7 q3 -2 6 -3.5 q3 -1.5 6 -2.5 q3 -1 3 -3 ZM237 47 q4 2 9 2 q5 0 5 -4 l0 -2 q-1 0 -2 0.5 q-1 0.5 -3 0.5 q-12 0 -12 -10 q0 -8 8 -8 q6 0 9 5 l2 -4 l6 0 q-1 2 -1 7 l0 11 q0 10 -10 10 q-4 0 -7.5 -1 q-3.5 -1 -5.5 -2 l2 -5 ZM245 32 q-4 0 -4 4 q0 4 5 4 q2 0 3 -0.5 q1 -0.5 2 -0.5 l0 -3 q-2 -4 -6 -4 ZM292 27 l0 16 q0 12 -9 12 q-7 0 -10 -5 l-2 4 l-5 0 l0 -27 l7 0 l0 17 q2 4 6 4 q5 0 5 -6 l0 -15 l8 0 ZM297 28 q4 -2 10 -2 q11 0 11 9 q0 5 -2.5 6 q-2.5 1 -5.5 3 q-5 2 -5 3 q0 2 3 2 q4 0 8 -2 l2 6 q-4 2 -10 2 q-10 0 -10 -9 q0 -5 3 -6.5 q3 -1.5 5 -2.5 q5 0 5 -3 q0 -2 -3 -2 q-5 0 -9 2 l-2 -6 ZM338 42 q0 -21 20 -21 q20 0 20 21 q0 20 -20 20 q-8 0 -14 -5.5 q-6 -5.5 -6 -14.5 ZM344 42 q0 15 14 15 q14 0 14 -15 q0 -15 -14 -15 q-14 0 -14 15 ZM364 38 q-2 -1 -4 -1 q-4 0 -4 5 q0 4 4 4 l3 0 l2 4 q-4 2 -7 2 q-9 0 -9 -10 q0 -11 9 -11 q5 0 7 2 l-1 5 ZM399 27 l8 0 l0 12 l4 0 q6 0 11 2.5 q5 2.5 5 9.5 q0 8 -5.5 10 q-5.5 2 -11.5 2 l-11 0 l0 -36 ZM411 57 q8 0 8 -5 q0 -5 -2.5 -5.5 q-2.5 -0.5 -6.5 -0.5 l-3 0 l0 11 l4 0 ZM432 47 q4 2 9 2 q5 0 5 -4 l0 -2 q-1 0 -2 0.5 q-1 0.5 -3 0.5 q-13 0 -13 -10 q0 -8 9 -
<glyph glyph-name="space" unicode=" " d="" /><glyph glyph-name="exclam" unicode="!" d="M133 700 l100 0 l0 -343 l-20 -173 l-60 0 l-20 173 l0 343 ZM115 51 q0 29 18.5 46 q18.5 17 48.5 17 q30 0 48.5 -17 q18.5 -17 18.5 -46 q0 -27 -18.5 -45 q-18.5 -18 -48.5 -18 q-30 0 -48.5 18 q-18.5 18 -18.5 45 Z" /><glyph glyph-name="quotedbl" unicode="&quot;" d="M98 700 l92 0 l-35 -198 l-57 0 l0 198 ZM228 700 l92 0 l-35 -198 l-57 0 l0 198 Z" /><glyph glyph-name="numbersign" unicode="#" d="M305 221 l-113 0 l-42 -164 l-81 0 l42 164 l-85 0 l17 72 l87 0 l32 124 l-81 0 l17 72 l83 0 l40 154 l81 0 l-40 -154 l113 0 l40 154 l81 0 l-40 -154 l83 0 l-19 -72 l-83 0 l-32 -124 l79 0 l-19 -72 l-79 0 l-43 -164 l-80 0 l42 164 ZM211 293 l113 0 l32 124 l-113 0 l-32 -124 Z" /><glyph glyph-name="dollar" unicode="$" d="M263 -13 q-61 2 -108 11.5 q-47 9.5 -75 23.5 l31 84 q23 -12 60.5 -22.5 q37.5 -10.5 91.5 -12.5 l0 250 q-33 14 -65.5 30.5 q-32.5 16.5 -58 40 q-25.5 23.5 -41 56 q-15.5 32.5 -15.5 78.5 q0 78 45 125.5 q45 47.5 135 58.5 l0 90 l79 0 l0 -88 q55 -2 91 -10 q36 -8 65 -21 l-29 -82 q-20 10 -51 18 q-31 8 -76 11 l0 -229 q34 -15 68 -32.5 q34 -17.5 61 -41.5 q27 -24 43.5 -56 q16.5 -32 16.5 -77 q0 -83 -48.5 -134.5 q-48.5 -51.5 -140.5 -65.5 l0 -92 l-79 0 l0 87 ZM320 73 q51 6 82 32.5 q31 26.5 31 76.5 q0 22 -9 39 q-9 17 -24.5 30.5 q-15.5 13.5 -36 24.5 q-20.5 11 -43.5 21 l0 -224 ZM285 628 q-58 -5 -81 -31.5 q-23 -26.5 -23 -63.5 q0 -40 30 -64.5 q30 -24.5 74 -44.5 l0 204 Z" /><glyph glyph-name="percent" unicode="%" d="M74 542 q0 44 13 76 q13 32 36 53 q23 21 54.5 31 q31.5 10 68.5 10 q37 0 68.5 -9.5 q31.5 -9.5 55 -29.5 q23.5 -20 36.5 -52.5 q13 -32.5 13 -78.5 q0 -46 -13 -78.5 q-13 -32.5 -36.5 -52.5 q-23.5 -20 -55 -29.5 q-31.5 -9.5 -68.5 -9.5 q-37 0 -68.5 9.5 q-31.5 9.5 -54.5 29.5 q-23 20 -36 52.5 q-13 32.5 -13 78.5 ZM162 542 q0 -54 21.5 -79.5 q21.5 -25.5 62.5 -25.5 q40 0 62.5 23 q22.5 23 22.5 82 q0 60 -22 82.5 q-22 22.5 -63 22.5 q-40 0 -62 -22.5 q-22 -22.5 -22 -82.5 ZM473 170 q0 44 13 76 q13 32 36 53 q23 21 54.5 31 q31.5 10 68.5 10 q37 0 68.5 -9.5 q31.5 -9.5 55 -29.5 q23.5 -20 36.5 -52.5 q13 -32.5 13 -78.5 q0 -46 -13 -78.5 q-13 -32.5 -36.5 -52.5 q-23.5 -20 -55 -29.5 q-31.5 -9.5 -68.5 -9.5 q-37 0 -68.5 9.5 q-31.5 9.5 -54.5 29.5 q-23 20 -36 52.5 q-13 32.5 -13 78.5 ZM561 170 q0 -54 21.5 -79.5 q21.5 -25.5 62.5 -25.5 q40 0 62.5 23 q22.5 23 22.5 82 q0 60 -22 82.5 q-22 22.5 -63 22.5 q-40 0 -62 -22.5 q-22 -22.5 -22 -82.5 ZM704 713 l58 -48 l-572 -678 l-57 49 l571 677 Z" /><glyph glyph-name="ampersand" unicode="&amp;" d="M125 189 q0 40 15 75.5 q15 35.5 40.5 67 q25.5 31.5 59 57.5 q33.5 26 70.5 46 q-26 35 -44.5 70.5 q-18.5 35.5 -18.5 76.5 q0 24 9 47.5 q9 23.5 28.5 42 q19.5 18.5 50.5 30 q31 11.5 75 11.5 q46 0 77.5 -11 q31.5 -11 50.5 -28.5 q19 -17.5 27 -39.5 q8 -22 8 -44 q0 -41 -34.5 -86 q-34.5 -45 -111.5 -84 q38 -58 89 -116 q51 -58 104 -108 q12 12 24.5 30 q12.5 18 23.5 39 q11 21 21 42.5 q10 21.5 17 41.5 l72 -37 q-6 -17 -18 -40 q-12 -23 -26.5 -46.5 q-14.5 -23.5 -29.5 -45 q-15 -21.5 -28 -36.5 q22 -19 39.5 -32.5 q17.5 -13.5 33 -23.5 q15.5 -10 29.5 -18 q14 -8 29 -15 l-56 -68 q-28 14 -61.5 37 q-33.5 23 -68.5 55 q-20 -18 -43.5 -34.5 q-23.5 -16.5 -53 -29 q-29.5 -12.5 -65.5 -20.5 q-36 -8 -79 -8 q-52 0 -98 13.5 q-46 13.5 -81 39.5 q-35 26 -55.5 63.5 q-20.5 37.5 -20.5 85.5 ZM563 136 q-30 28 -60.5 61 q-30.5 33 -57.5 65.5 q-27 32.5 -50.5 62.5 q-23.5 30 -40.5 53 q-59 -40 -96.5 -83.5 q-37.5 -43.5 -37.5 -101.5 q0 -29 14 -52.5 q14 -23.5 37.5 -40 q23.5 -16.5 55 -25 q31.5 -8.5 66.5 -8.5 q26 0 51.5 6 q25.5 6 48 15.5 q22.5 9.5 40.5 22 q18 12.5 30 25.5 ZM342 580 q0 -28 12.5 -55.5 q12.5 -27.5 33.5 -56.5 q56 32 78.5 58 q22.5 26 22.5 46 q0 32 -16.5 50.5 q-16.5 18.5 -58.5 18.5 q-38 0 -55 -16.5 q-17 -16.5 -17 -44.5 Z" /><glyph glyph-name="quotesingle" unicode="&#39;" d="M98 700 l92 0 l-35 -198 l-57 0 l0 198 Z" /><glyph glyph-name="parenleft" unicode="(" d="M249 -220 q-51 48 -85.5 105.5 q-34.5 57.5 -56.5 118 q-22 60.5 -31.5 122 q-9.5 61.5 -9.5 117.5 q0 55 9.5 116 q9.5 61 31.5 122.5 q22 61.5 57.5 120.5 q35.5 59 87.5 110 l58 -43 q-43 -50 -72 -103.5 q-29 -53.5 -46 -108 q-17 -54.5 -24.5 -109 q-7.5 -54.5 -7.5 -105.5 q0 -48 8.5 -103 q8.5 -55 27 -110.5 q18.5 -55.5 47 -108.5 q28.5 -53 68.5 -96 l-62 -45 Z" /><glyph glyph-name="parenright" unicode=")" d="M3 -175 q40 43 68.5 96 q28.5 53 47 108.5 q18.5 55.5 27 110.5 q8.5 55 8.5 103 q0 51 -7.5 105.5 q-7.5 54.5 -24.5 109 q-17 54.5 -46 108 q-29 53.5 -72 103.5 l58 43 q52 -51 87.5 -110 q35.5 -59 57.5 -120.5 q22 -61.5 31.5 -122.5 q9.5 -61 9.5 -116 q0 -56 -9.5 -117.5 q-9.5 -61.5 -31.5 -122 q-22 -60.5 -56.5 -118 q-34.5 -57.5 -85.5 -105.5 l-62 45 Z" /><glyph glyph-name="asterisk" unicode="*" d="M144 724 l28 -44 l19 -59 l21 58 l27 45 l54 -30 l-29 -47 l-50 -49 l74 14 l53 0 l0 -63 l-51 0 l-69 14 l50 -50 l25 -41 l-53 -31 l-28 45 l-25 63 l-19 -60 l-27 -45 l-57 31 l30 45 l46 43 l-63 -14 l-55 0 l0 63 l55 0 l68 -14 l-50 47 l-29 48 l55 31 Z" /><glyph glyph-name="plus" unicode="+" d="M43 379 l191 0 l0 190 l86 0 l0 -190 l191 0 l0 -84 l-191 0 l0 -191 l-86 0 l0 191 l-191 0 l0 84 Z" /><glyph glyph-name="comma" unicode="," d="M59 47 q0 26 19 42.5 q19 16.5 46 16.5 q35 0 57 -23.5 q22 -23.5 22 -65.5 q0 -39 -11.5 -67.5 q-11.5 -28.5 -29.5 -49 q-18 -20.5 -39.5 -32.5 q-21.5 -12 -42.5 -18 l-28 46 q38 13 57.5 41.5 q19.5 28.5 18.5 57.5 q-27 -8 -48 6 q-21 14 -21 46 Z" /><glyph glyph-name="hyphen" unicode="-" d="M64 332 l266 0 l0 -86 l-266 0 l0 86 Z" /><glyph glyph-name="period" unicode="." d="M52 51 q0 29 18.5 46 q18.5 17 48.5 17 q30 0 48.5 -17 q18.5 -17 18.5 -46 q0 -27 -18.5 -45 q-18.5 -18 -48.5 -18 q-30 0 -48.5 18 q-18.5 18 -18.5 45 Z" /><glyph glyph-name="slash" unicode="/" d="M360 712 l74 -34 l-399 -818 l-73 36 l398 816 Z" /><glyph glyph-name="zero" unicode="0" d="M44 350 q0 175 64 269 q64 94 189 94 q132 0 193 -93 q61 -93 61 -270 q0 -174 -65 -268.5 q-65 -94.5 -190 -94.5 q-66 0 -113.5 26 q-47.5 26 -78 73.5 q-30.5 47.5 -45.5 114.5 q-15 67 -15 149 ZM142 350 q0 -61 9 -112.5 q9 -51.5 27.5 -89.5 q18.5 -38 48 -59.5 q29.5 -21.5 70.5 -21.5 q81 0 118.5 70 q37.5 70 37.5 213 q0 61 -8 112.5 q-8 51.5 -26.5 89.5 q-18.5 38 -48.5 59.5 q-30 21.5 -73 21.5 q-81 0 -118 -71 q-37 -71 -37 -212 Z" /><glyph glyph-name="one" unicode="1" d="M113 84 l152 0 l0 465 l12 61 l-44 -50 l-119 -80 l-42 59 l241 173 l44 0 l0 -628 l150 0 l0 -84 l-394 0 l0 84 Z" /><glyph glyph-name="two" unicode="2" d="M489 536 q0 -51 -21 -104.5 q-21 -53.5 -54.5 -106.5 q-33.5 -53 -75 -105 q-41.5 -52 -83.5 -100 l-54 -43 l0 -4 l72 11 l233 0 l0 -84 l-441 0 l0 36 q24 23 57.5 56.5 q33.5 33.5 70 74 q36.5 40.5 72 85.5 q35.5 45 63.5 91.5 q28 46.5 45.5 91.5 q17.5 45 17.5 85 q0 47 -29 78 q-29 31 -89 31 q-42 0 -81 -16 q-39 -16 -67 -39 l-41 67 q41 33 93 52.5 q52 19.5 115 19.5 q93 0 145 -48.5 q52 -48.5 52 -128.5 Z" /><glyph glyph-name="three" unicode="3" d="M255 69 q37 0 68 10 q31 10 53 28 q22 18 34.5 43 q12.5 25 12.5 55 q0 66 -44 98 q-44 32 -125 32 l-81 0 l0 38 l153 208 l52 44 l-74 -9 l-210 0 l0 84 l395 0 l0 -39 l-169 -227 l-40 -29 l0 -3 l38 7 q43 -1 79.5 -15 q36.5 -14 63.5 -39.5 q27 -25.5 42 -61 q15 -35.5 15 -79.5 q0 -56 -21 -98 q-21 -42 -57 -71 q-36 -29 -84 -43.5 q-48 -14.5 -103 -14.5 q-49 0 -90 7.5 q-41 7.5 -71 20.5 l25 82 q26 -12 60.5 -20 q34.5 -8 77.5 -8 Z" /><glyph glyph-name="four" unicode="4" d="M576 211 l-128 0 l0 -211 l-92 0 l0 211 l-337 0 l0 42 l362 457 l67 0 l0 -421 l128 0 l0 -78 ZM356 492 l9 80 l-3 0 l-37 -65 l-148 -179 l-53 -47 l75 8 l157 0 l0 203 Z" /><glyph glyph-name="five" unicode="5" d="M106 90 q25 -9 53.5 -14 q28.5 -5 72.5 -5 q75 0 123 36.5 q48 36.5 48 107.5 q0 69 -48.5 103.5 q-48.5 34.5 -134.5 34.5 l-91 -4 l0 351 l347 0 l0 -88 l-259 0 l0 -181 l47 2 q54 0 97 -15 q43 -15 73.5 -42 q30.5 -27 47 -66.5 q16.5 -39.5 16.5 -89.5 q0 -57 -21 -100.5 q-21 -43.5 -57.5 -73 q-36.5 -29.5 -85.5 -44.5 q-49 -15 -105 -15 q-48 0 -83.5 6 q-35.5 6 -65.5 17 l26 80 l0 0 Z" /><glyph glyph-name="six" unicode="6" d="M540 212 q0 -44 -16 -84.5 q-16 -40.5 -46 -72 q-30 -31.5 -74 -50 q-44 -18.5 -100 -18.5 q-54 0 -98.5 17 q-44.5 17 -76.5 49 q-32 32 -49.5 79 q-17.5 47 -17.5 107 q0 96 28 178.5 q28 82.5 77.5 145.5 q49.5 63 117 102 q67.5 39 147.5 48 l19 -76 q-60 -8 -109.5 -35.5 q-49.5 -27.5 -87 -67 q-37.5 -39.5 -61.5 -88 q-24 -48.5 -32 -98.5 q9 13 23.5 26 q14.5 13 34.5 23 q20 10 45 16 q25 6 54 6 q51 0 92.5 -14.5 q41.5 -14.5 70 -41.5 q28.5 -27 44 -65 q15.5 -38 15.5 -86 ZM445 205 q0 66 -36.5 100 q-36.5 34 -109.5 34 q-53 0 -90.5 -23 q-37.5 -23 -52.5 -52 q-2 -13 -2 -20.5 q0 -7.5 0 -17.5 q0 -29 9 -57.5 q9 -28.5 28 -51 q19 -22.5 47.5 -36.5 q28.5 -14 66.5 -14 q31 0 56.5 11 q25.5 11 44 30 q18.5 19 29 44 q10.5 25 10.5 53 Z" /><glyph glyph-name="seven" unicode="7" d="M115 0 l270 573 l48 49 l-65 -10 l-306 0 l0 88 l464 0 l0 -29 l-315 -671 l-96 0 Z" /><glyph glyph-name="eight" unicode="8" d="M217 360 q-27 15 -50.5 31.5 q-23.5 16.5 -41 37.5 q-17.5 21 -27.5 47 q-10 26 -10 59 q0 38 15 70.5 q15 32.5 43 56.5 q28 24 68 37.5 q40 13.5 90 13.5 q46 0 83.5 -12 q37.5 -12 64 -34 q26.5 -22 41 -51.5 q14.5 -29.5 14.5 -64.5 q0 -57 -28 -100 q-28 -43 -93 -83 q29 -16 54.5 -33.5 q25.5 -17.5 44 -39.5 q18.5 -22 29 -49 q10.5 -27 10.5 -61 q0 -43 -15.5 -79 q-15.5 -36 -45.5 -62.5 q-30 -26.5 -73.5 -41.5 q-43.5 -15 -98.5 -15 q-53 0 -93.5 14.5 q-40.5 14.5 -69 39 q-28.5 24.5 -43 58 q-14.5 33.5 -14.5 71.5 q0 63 36 108 q36 45 110 82 ZM279 329 q-64 -32 -91 -71.5 q-27 -39.5 -27 -74.5 q0 -23 9 -44 q9 -21 26 -37 q17 -16 42 -25.5 q25 -9.5 58 -9.5 q27 0 52 7.5 q25 7.5 43.5 21.5 q18.5 14 29.5 35.5 q11 21.5 11 49.5 q0 27 -13 48.5 q-13 21.5 -34.5 39 q-21.5 17.5 -49 32 q-27.5 14.5 -56.5 28.5 ZM324 395 q46 33 69 66 q23 33 23 71 q0 24 -9.5 42.5 q-9.5 18.5 -25 31.5 q-15.5 13 -36.5 20 q-21 7 -44 7 q-29 0 -51 -8.5 q-22 -8.5 -37.5 -22 q-15.5 -13.5 -23.5 -30.5 q-8 -17 -8 -35 q0 -27 12 -48 q12 -21 31.5 -37.5 q19.5 -16.5 45.5 -30 q26 -13.5 54 -26.5 Z" /><glyph glyph-name="nine" unicode="9" d="M53 487 q0 47 15.5 88.5 q15.5 41.5 45.5 72 q30 30.5 75 48 q45 17.5 104 17.5 q56 0 100.5 -18 q44.5 -18 75.5 -51 q31 -33 47.5 -80 q16.5 -47 16.5 -106 q0 -113 -28.5 -198 q-28.5 -85 -79 -143.5 q-50.5 -58.5 -118 -90.5 q-67.5 -32 -145.5 -39 l-20 75 q63 7 113 30.5 q50 23.5 86 60 q36 36.5 59 83 q23 46.5 32 100.5 q-15 -16 -30.5 -27 q-15.5 -11 -34 -17.5 q-18.5 -6.5 -41 -9 q-22.5 -2.5 -51.5 -2.5 q-44 0 -84.5 14 q-40.5 14 -71 40 q-30.5 26 -48.5 64.5 q-18 38.5 -18 88.5 ZM149 494 q0 -67 41 -101.5 q41 -34.5 106 -34.5 q53 0 89.5 17 q36.5 17 53.5 41 q2 12 2 21 q0 9 0 20 q0 33 -9 65 q-9 32 -27.5 57 q-18.5 25 -47.5 40.5 q-29 15.5 -69 15.5 q-66 0 -102.5 -37.5 q-36.5 -37.5 -36.5 -103.5 Z" /><glyph glyph-name="colon" unicode=":" d="M99 445 q0 29 18.5 46 q18.5 17 48.5 17 q30 0 48.5 -17 q18.5 -17 18.5 -46 q0 -27 -18.5 -45 q-18.5 -18 -48.5 -18 q-30 0 -48.5 18 q-18.5 18 -18.5 45 ZM99 51 q0 29 18.5 46 q18.5 17 48.5 17 q30 0 48.5 -17 q18.5 -17 18.5 -46 q0 -27 -18.5 -45 q-18.5 -18 -48.5 -18 q-30 0 -48.5 18 q-18.5 18 -18.5 45 Z" /><glyph glyph-name="semicolon" unicode=";" d="M93 47 q0 26 19 42.5 q19 16.5 46 16.5 q35 0 57 -23.5 q22 -23.5 22 -65.5 q0 -39 -11.5 -67.5 q-11.5 -28.5 -29.5 -49 q-18 -20.5 -39.5 -32.5 q-21.5 -12 -42.5 -18 l-28 46 q38 13 57.5 41.5 q19.5 28.5 18.5 57.5 q-27 -8 -48 6 q-21 14 -21 46 ZM98 445 q0 29 18.5 46 q18.5 17 48.5 17 q30 0 48.5 -17 q18.5 -17 18.5 -46 q0 -27 -18.5 -45 q-18.5 -18 -48.5 -18 q-30 0 -48.5 18 q-18.5 18 -18.5 45 Z" /><glyph glyph-name="less" unicode="&lt;" d="M44 300 l0 38 l419 236 l42 -72 l-256 -144 l-100 -37 l99 -32 l262 -143 l-41 -70 l-425 224 Z" /><glyph glyph-name="equal" unicode="=" d="M43 465 l468 0 l0 -84 l-468 0 l0 84 ZM43 293 l468 0 l0 -84 l-468 0 l0 84 Z" /><glyph glyph-name="greater" unicode="&gt;" d="M510 348 l0 -38 l-420 -235 l-41 72 l256 144 l100 37 l-99 32 l-262 143 l40 71 l426 -226 Z" /><glyph glyph-name="question" unicode="?" d="M160 184 q-4 50 7.5 86 q11.5 36 31.5 64 q20 28 44.5 50 q24.5 22 46 44 q21.5 22 36 47 q14.5 25 14.5 58 q0 44 -26.5 72 q-26.5 28 -92.5 28 q-40 0 -81.5 -15 q-41.5 -15 -70.5 -32 l-32 72 q42 26 89 40.5 q47 14.5 116 14.5 q49 0 86 -13 q37 -13 62 -35.5 q25 -22.5 37.5 -53 q12.5 -30.5 12.5 -65.5 q0 -47 -15 -80.5 q-15 -33.5 -37 -59.5 q-22 -26 -48 -48 q-26 -22 -48 -46.5 q-22 -24.5 -37 -54.5 q-15 -30 -15 -73 l-80 0 ZM138 51 q0 29 18.5 46 q18.5 17 48.5 17 q30 0 48.5 -17 q18.5 -17 18.5 -46 q0 -27 -18.5 -45 q-18.5 -18 -48.5 -18 q-30 0 -48.5 18 q-18.5 18 -18.5 45 Z" /><glyph glyph-name="at" unicode="@" d="M770 490 l42 0 l-56 -282 q-12 -63 -8 -93 q4 -30 40 -30 q36 0 71.5 17 q35.5 17 63 48.5 q27.5 31.5 45 76 q17.5 44.5 17.5 99.5 q0 79 -29 139.5 q-29 60.5 -80 101.5 q-51 41 -121.5 62 q-70.5 21 -152.5 21 q-89 0 -166 -31 q-77 -31 -134 -85.5 q-57 -54.5 -90 -129 q-33 -74.5 -33 -162.5 q0 -87 29 -157.5 q29 -70.5 83.5 -120 q54.5 -49.5 132 -76 q77.5 -26.5 173.5 -26.5 q32 0 71.5 7.5 q39.5 7.5 72.5 21.5 l23 -75 q-48 -20 -90 -27 q-42 -7 -92 -7 q-104 0 -193 30.5 q-89 30.5 -155 88.5 q-66 58 -103.5 142.5 q-37.5 84.5 -37.5 192.5 q0 112 41 203 q41 91 111.5 155.5 q70.5 64.5 163.5 100 q93 35.5 198 35.5 q98 0 182.5 -28.5 q84.5 -28.5 147 -81 q62.5 -52.5 98 -127 q35.5 -74.5 35.5 -167.5 q0 -62 -24 -119.5 q-24 -57.5 -65.5 -102 q-41.5 -44.5 -96.5 -71 q-55 -26.5 -117 -26.5 q-28 0 -49.5 6.5 q-21.5 6.5 -35 22 q-13.5 15.5 -17.5 41.5 q-4 26 3 65 l-4 0 q-16 -24 -37 -48 q-21 -24 -46 -43.5 q-25 -19.5 -54.5 -31.5 q-29.5 -12 -62.5 -12 q-26 0 -49 11 q-23 11 -40.5 31.5 q-17.5 20.5 -27.5 48.5 q-10 28 -10 62 q0 60 22.5 120 q22.5 60 61.5 108 q39 48 90.5 78 q51.5 30 108.5 30 q40 0 65 -11.5 q25 -11.5 48 -27.5 l37 33 ZM706 383 q-18 19 -36 27 q-18 8 -46 8 q-42 0 -77.5 -23 q-35.5 -23 -61.5 -58.5 q-26 -35.5 -41 -78 q-15 -42.5 -15 -82.5 q0 -36 16.5 -63.5 q16.5 -27.5 61.5 -27.5 q21 0 44 14 q23 14 45.5 37 q22.5 23 43 52 q20.5 29 36.5 59 l30 136 Z" /><glyph glyph-name="A" unicode="a" d="M457 183 l-277 0 l-74 -183 l-98 0 l288 710 l52 0 l289 -710 l-104 0 l-76 183 ZM210 267 l218 0 l-81 199 l-27 107 l-2 0 l-27 -109 l-81 -197 Z" /><glyph glyph-name="B" unicode="b" d="M559 538 q0 -26 -8.5 -51.5 q-8.5 -25.5 -26 -48 q-17.5 -22.5 -44.5 -39.5 q-27 -17 -64 -25 l0 -4 q32 -4 62 -16 q30 -12 53 -33 q23 -21 37 -51 q14 -30 14 -71 q0 -54 -25 -93.5 q-25 -39.5 -66 -65 q-41 -25.5 -92.5 -37.5 q-51.5 -12 -103.5 -12 q-18 0 -44 0.5 q-26 0.5 -54.5 2 q-28.5 1.5 -57 4 q-28.5 2.5 -50.5 7.5 l0 689 q41 7 96 11 q55 4 118 4 q43 0 88.5 -7.5 q45.5 -7.5 82.5 -26.5 q37 -19 61 -52 q24 -33 24 -85 ZM187 82 q7 -2 21 -3 q14 -1 30.5 -2 q16.5 -1 33 -1.5 q16.5 -0.5 30.5 -0.5 q34 0 65.5 7 q31.5 7 55.5 22 q24 15 38.5 38 q14.5 23 14.5 55 q0 40 -17.5 63.5 q-17.5 23.5 -45.5 36 q-28 12.5 -63 16 q-35 3.5 -69 3.5 l-94 0 l0 -234 ZM242 394 q19 0 44 1.5 q25 1.5 42 3.5 q25 7 47.5 17.5 q22.5 10.5 39.5 25 q17 14.5 27 34 q10 19.5 10 44.5 q0 34 -13.5 54.5 q-13.5 20.5 -35.5 31.5 q-22 11 -50 15 q-28 4 -57 4 q-35 0 -64.5 -1.5 q-29.5 -1.5 -44.5 -3.5 l0 -226 l55 0 Z" /><glyph glyph-name="C" unicode="c" d="M584 30 q-33 -24 -84 -33.5 q-51 -9.5 -108 -9.5 q-67 0 -127.5 21.5 q-60.5 21.5 -106.5 66 q-46 44.5 -73 113 q-27 68.5 -27 162.5 q0 98 30 167 q30 69 78 112.5 q48 43.5 108 63.5 q60 20 119 20 q66 0 108 -7 q42 -7 71 -18 l-22 -86 q-49 23 -149 23 q-45 0 -87.5 -14.5 q-42.5 -14.5 -76 -47 q-33.5 -32.5 -53.5 -85 q-20 -52.5 -20 -128.5 q0 -68 19 -119.5 q19 -51.5 52.5 -86 q33.5 -34.5 79 -52 q45.5 -17.5 99.5 -17.5 q49 0 85 9 q36 9 61 23 l24 -77 Z" /><glyph glyph-name="D" unicode="d" d="M89 700 q20 3 46.5 4.5 q26.5 1.5 55 2.5 q28.5 1 56 1.5 q27.5 0.5 50.5 0.5 q92 0 159.5 -26.5 q67.5 -26.5 112 -73.5 q44.5 -47 66.5 -112 q22 -65 22 -142 q0 -70 -20.5 -135.5 q-20.5 -65.5 -65.5 -116.5 q-45 -51 -115.5 -82 q-70.5 -31 -170.5 -31 q-17 0 -45.5 1 q-28.5 1 -58.5 2 q-30 1 -55.5 2.5 q-25.5 1.5 -36.5 3.5 l0 701 ZM300 621 q-14 0 -30 0 q-16 0 -32 -1 q-16 -1 -29 -2 q-13 -1 -20 -2 l0 -534 q5 -1 19.5 -1.5 q14.5 -0.5 30.5 -1 q16 -0.5 30 -1 q14 -0.5 20 -0.5 q75 0 125.5 23.5 q50.5 23.5 81 62.5 q30.5 39 43 88.5 q12.5 49.5 12.5 102.5 q0 45 -12 92 q-12 47 -41 85.5 q-29 38.5 -77 63.5 q-48 25 -121 25 Z" /><glyph glyph-name="E" unicode="e" d="M89 700 l423 0 l0 -86 l-323 0 l0 -213 l295 0 l0 -86 l-295 0 l0 -229 l328 0 l0 -86 l-428 0 l0 700 Z" /><glyph glyph-name="F" unicode="f" d="M89 700 l423 0 l0 -86 l-323 0 l0 -223 l300 0 l0 -86 l-300 0 l0 -305 l-100 0 l0 700 Z" /><glyph glyph-name="G" unicode="g" d="M348 353 l262 0 l0 -309 q-18 -14 -43 -24.5 q-25 -10.5 -53.5 -17.5 q-28.5 -7 -58.5 -11 q-30 -4 -59 -4 q-72 0 -133.5 21.5 q-61.5 21.5 -107 66.5 q-45.5 45 -71.5 113.5 q-26 68.5 -26 161.5 q0 97 31.5 166 q31.5 69 81.5 113 q50 44 111.5 64 q61.5 20 122.5 20 q66 0 109.5 -7.5 q43.5 -7.5 72.5 -18.5 l-24 -85 q-52 23 -150 23 q-45 0 -89.5 -14 q-44.5 -14 -80 -46.5 q-35.5 -32.5 -57.5 -85 q-22 -52.5 -22 -129.5 q0 -71 18.5 -123 q18.5 -52 51.5 -86 q33 -34 78 -50 q45 -16 98 -16 q33 0 63.5 6.5 q30.5 6.5 53.5 18.5 l0 177 l-179 18 l0 58 Z" /><glyph glyph-name="H" unicode="h" d="M544 313 l-355 0 l0 -313 l-100 0 l0 700 l100 0 l0 -299 l355 0 l0 299 l100 0 l0 -700 l-100 0 l0 313 Z" /><glyph glyph-name="I" unicode="i" d="M149 634 l-80 0 l0 66 l260 0 l0 -66 l-80 0 l0 -568 l80 0 l0 -66 l-260 0 l0 66 l80 0 l0 568 Z" /><glyph glyph-name="J" unicode="j" d="M125 700 l100 0 l0 -540 q0 -78 -40.5 -124 q-40.5 -46 -119.5 -46 q-10 0 -23.5 1 q-13.5 1 -27.5 3.5 q-14 2.5 -27 5.5 q-13 3 -22 7 l19 83 q28 -12 67 -12 q45 0 59.5 29 q14.5 29 14.5 80 l0 513 Z" /><glyph glyph-name="K" unicode="k" d="M238 318 l-49 0 l0 -318 l-100 0 l0 700 l100 0 l0 -322 l46 14 l252 308 l114 0 l-252 -300 l-47 -34 l55 -40 l278 -326 l-126 0 l-271 318 Z" /><glyph glyph-name="L" unicode="l" d="M547 0 l-458 0 l0 700 l100 0 l0 -612 l358 0 l0 -88 Z" /><glyph glyph-name="M" unicode="m" d="M679 451 l11 112 l-4 0 l-43 -97 l-195 -310 l-30 0 l-205 311 l-41 95 l-5 0 l16 -110 l0 -452 l-94 0 l0 700 l75 0 l237 -357 l37 -76 l2 0 l35 78 l225 355 l79 0 l0 -700 l-100 0 l0 451 Z" /><glyph glyph-name="N" unicode="n" d="M235 445 l-60 98 l-4 0 l12 -98 l0 -445 l-94 0 l0 710 l56 0 l357 -454 l57 -93 l5 0 l-12 93 l0 444 l94 0 l0 -710 l-56 0 l-355 455 Z" /><glyph glyph-name="O" unicode="o" d="M58 350 q0 86 21.5 153.5 q21.5 67.5 62 114 q40.5 46.5 99 71 q58.5 24.5 132.5 24.5 q79 0 138.5 -26.5 q59.5 -26.5 99 -74 q39.5 -47.5 59 -114.5 q19.5 -67 19.5 -148 q0 -86 -21.5 -153.5 q-21.5 -67.5 -62.5 -114 q-41 -46.5 -99.5 -71 q-58.5 -24.5 -132.5 -24.5 q-80 0 -139 26.5 q-59 26.5 -98 74 q-39 47.5 -58.5 114.5 q-19.5 67 -19.5 148 ZM164 350 q0 -57 12.5 -107 q12.5 -50 38 -88 q25.5 -38 65 -60 q39.5 -22 93.5 -22 q97 0 153.5 67 q56.5 67 56.5 210 q0 56 -12.5 106 q-12.5 50 -38 88 q-25.5 38 -65 60.5 q-39.5 22.5 -94.5 22.5 q-96 0 -152.5 -68 q-56.5 -68 -56.5 -209 Z" /><glyph glyph-name="P" unicode="p" d="M89 693 q42 9 91.5 12.5 q49.5 3.5 97.5 3.5 q51 0 103.5 -9 q52.5 -9 95.5 -33 q43 -24 70.5 -66.5 q27.5 -42.5 27.5 -109.5 q0 -63 -25 -107.5 q-25 -44.5 -66.5 -72.5 q-41.5 -28 -95 -41 q-53.5 -13 -110.5 -13 q-6 0 -18.5 0.5 q-12.5 0.5 -26 1 q-13.5 0.5 -26 1.5 q-12.5 1 -18.5 2 l0 -262 l-100 0 l0 693 ZM281 623 q-27 0 -52.5 -1 q-25.5 -1 -39.5 -5 l0 -269 q5 -2 16.5 -2.5 q11.5 -0.5 24 -1.5 q12.5 -1 24 -1 q11.5 0 17.5 0 q36 0 71 5.5 q35 5.5 63.5 21.5 q28.5 16 46 45 q17.5 29 17.5 75 q0 40 -17 66 q-17 26 -44 41 q-27 15 -60.5 20.5 q-33.5 5.5 -66.5 5.5 Z" /><glyph glyph-name="Q" unicode="q" d="M771 -181 q-26 -7 -52 -9.5 q-26 -2.5 -52 -2.5 q-55 0 -107.5 10.5 q-52.5 10.5 -101 23 q-48.5 12.5 -93.5 23 q-45 10.5 -85 10.5 q-25 0 -49 -6 l0 86 q30 6 60 6 q45 0 90.5 -10.5 q45.5 -10.5 92 -22.5 q46.5 -12 96 -22.5 q49.5 -10.5 103.5 -10.5 q23 0 47.5 2.5 q24.5 2.5 50.5 8.5 l0 -86 ZM58 350 q0 86 21.5 153.5 q21.5 67.5 62 114 q40.5 46.5 99 71 q58.5 24.5 132.5 24.5 q79 0 138.5 -26.5 q59.5 -26.5 99 -74 q39.5 -47.5 59 -114.5 q19.5 -67 19.5 -148 q0 -86 -21.5 -153.5 q-21.5 -67.5 -62.5 -114 q-41 -46.5 -99.5 -71 q-58.5 -24.5 -132.5 -24.5 q-80 0 -139 26.5 q-59 26.5 -98 74 q-39 47.5 -58.5 114.5 q-19.5 67 -19.5 148 ZM164 350 q0 -57 12.5 -107 q12.5 -50 38 -88 q25.5 -38 65 -60 q39.5 -22 93.5 -22 q97 0 153.5 67 q56.5 67 56.5 210 q0 56 -12.5 106 q-12.5 50 -38 88 q-25.5 38 -65 60.5 q-39.5 22.5 -94.5 22.5 q-96 0 -152.5 -68 q-56.5 -68 -56.5 -209 Z" /><glyph glyph-name="R" unicode="r" d="M89 693 q21 4 46.5 7 q25.5 3 51.5 5 q26 2 52 3 q26 1 49 1 q50 0 96.5 -10 q46.5 -10 82 -33 q35.5 -23 57 -60 q21.5 -37 21.5 -91 q0 -42 -13 -76 q-13 -34 -36 -60 q-23 -26 -54.5 -43.5 q-31.5 -17.5 -68.5 -26.5 l52 -35 l188 -274 l-115 0 l-208 295 l-101 14 l0 -309 l-100 0 l0 693 ZM291 623 q-14 0 -28.5 0 q-14.5 0 -28.5 -1 q-14 -1 -26 -2 q-12 -1 -19 -3 l0 -242 l82 0 q36 0 66.5 7.5 q30.5 7.5 53 23 q22.5 15.5 35.5 40.5 q13 25 13 61 q0 54 -38 85 q-38 31 -110 31 Z" /><glyph glyph-name="S" unicode="s" d="M433 184 q0 41 -27 65 q-27 24 -68 41.5 q-41 17.5 -88 33 q-47 15.5 -88 39.5 q-41 24 -68 62 q-27 38 -27 99 q0 85 62.5 137 q62.5 52 178.5 52 q67 0 123 -10 q56 -10 88 -26 l-31 -84 q-25 13 -75 23.5 q-50 10.5 -110 10.5 q-68 0 -102 -29 q-34 -29 -34 -67 q0 -39 27 -63 q27 -24 68 -42.5 q41 -18.5 88 -35.5 q47 -17 88 -42 q41 -25 68 -61.5 q27 -36.5 27 -93.5 q0 -47 -18 -85 q-18 -38 -52 -65 q-34 -27 -82 -41.5 q-48 -14.5 -109 -14.5 q-82 0 -138.5 12.5 q-56.5 12.5 -85.5 26.5 l33 87 q25 -13 75.5 -26.5 q50.5 -13.5 111.5 -13.5 q35 0 65 6.5 q30 6.5 52.5 20 q22.5 13.5 35 34.5 q12.5 21 12.5 50 Z" /><glyph glyph-name="T" unicode="t" d="M591 612 l-236 0 l0 -612 l-100 0 l0 612 l-236 0 l0 88 l572 0 l0 -88 Z" /><glyph glyph-name="U" unicode="u" d="M527 700 l94 0 l0 -457 q0 -65 -18.5 -112 q-18.5 -47 -52.5 -78.5 q-34 -31.5 -80.5 -46.5 q-46.5 -15 -103.5 -15 q-135 0 -206 58.5 q-71 58.5 -71 173.5 l0 477 l100 0 l0 -439 q0 -102 44.5 -142 q44.5 -40 131.5 -40 q84 0 123 44 q39 44 39 141 l0 436 Z" /><glyph glyph-name="V" unicode="v" d="M296 234 l26 -109 l2 0 l27 111 l180 464 l100 0 l-290 -710 l-50 0 l-294 710 l110 0 l189 -466 Z" /><glyph glyph-name="W" unicode="w" d="M247 246 l16 -117 l2 0 l18 119 l155 452 l50 0 l156 -454 l18 -117 l2 0 l19 119 l124 452 l98 0 l-213 -710 l-57 0 l-153 455 l-21 106 l-5 0 l-20 -107 l-153 -454 l-58 0 l-217 710 l105 0 l134 -454 Z" /><glyph glyph-name="X" unicode="x" d="M280 356 l-231 344 l119 0 l151 -230 l27 -58 l26 58 l158 230 l110 0 l-238 -337 l249 -363 l-117 0 l-167 244 l-31 61 l-28 -61 l-171 -244 l-110 0 l253 356 Z" /><glyph glyph-name="Y" unicode="y" d="M261 274 l-254 426 l117 0 l175 -297 l17 -64 l2 0 l19 66 l167 295 l106 0 l-249 -425 l0 -275 l-100 0 l0 274 Z" /><glyph glyph-name="Z" unicode="z" d="M39 88 l377 484 l49 40 l-426 0 l0 88 l518 0 l0 -88 l-380 -487 l-47 -37 l427 0 l0 -88 l-518 0 l0 88 Z" /><glyph glyph-name="bracketleft" unicode="[" d="M89 700 l206 0 l0 -80 l-114 0 l0 -770 l114 0 l0 -80 l-206 0 l0 930 Z" /><glyph glyph-name="backslash" unicode="\" d="M442 -103 l-76 -37 l-402 816 l76 36 l402 -815 Z" /><glyph glyph-name="bracketright" unicode="]" d="M247 -230 l-206 0 l0 80 l114 0 l0 770 l-114 0 l0 80 l206 0 l0 -930 Z" /><glyph glyph-name="asciicircum" unicode="^" d="M266 710 l38 0 l188 -280 l-98 0 l-85 132 l-26 69 l-32 -70 l-100 -131 l-90 0 l205 280 Z" /><glyph glyph-name="underscore" unicode="_" d="M0 -131 l452 0 l0 -78 l-452 0 l0 78 Z" /><glyph glyph-name="grave" unicode="`" d="M241 570 l-54 0 l-127 127 l0 23 l110 0 l71 -150 Z" /><glyph glyph-name="a" unicode="a" d="M82 492 q90 43 223 43 q60 0 96.5 -15.5 q36.5 -15.5 56.5 -39.5 q20 -24 26.5 -53.5 q6.5 -29.5 6.5 -58.5 q0 -55 -4 -110.5 q-4 -55.5 -4 -120.5 q0 -38 3.5 -73.5 q3.5 -35.5 11.5 -65.5 l-67 0 l-25 80 l-10 0 q-11 -15 -27 -30.5 q-16 -15.5 -38 -27.5 q-22 -12 -50.5 -20 q-28.5 -8 -65.5 -8 q-37 0 -68 10.5 q-31 10.5 -53.5 29.5 q-22.5 19 -35.5 46.5 q-13 27.5 -13 61.5 q0 45 19.5 78 q19.5 33 50.5 54 q31 21 70.5 31 q39.5 10 78.5 10 q31 0 52.5 -1 q21.5 -1 36 -2.5 q14.5 -1.5 24.5 -3 q10 -1.5 18 -2.5 q2 15 3 26 q1 11 1 28 q0 28 -6 47 q-6 19 -19.5 30.5 q-13.5 11.5 -36.5 16.5 q-23 5 -56 5 q-19 0 -42 -3 q-23 -3 -46 -8.5 q-23 -5.5 -45.5 -13.5 q-22.5 -8 -40.5 -17 l-25 77 ZM395 238 q-8 1 -17 3 q-9 2 -22.5 3 q-13.5 1 -32 2 q-18.5 1 -45.5 1 q-62 0 -98.5 -22 q-36.5 -22 -36.5 -75 q0 -40 28.5 -60 q28.5 -20 73.5 -20 q33 0 58.5 8.5 q25.5 8.5 44 21 q18.5 12.5 30 28 q11.5 15.5 17.5 30.5 l0 80 Z" /><glyph glyph-name="b" unicode="b" d="M88 700 l92 0 l0 -240 l10 0 q23 40 66 59.5 q43 19.5 91 19.5 q109 0 165.5 -66.5 q56.5 -66.5 56.5 -200.5 q0 -137 -74 -209 q-74 -72 -208 -72 q-66 0 -119.5 11 q-53.5 11 -79.5 26 l0 672 ZM334 461 q-32 0 -56.5 -10 q-24.5 -10 -43.5 -27.5 q-19 -17.5 -32.5 -40 q-13.5 -22.5 -21.5 -46.5 l0 -249 q49 -19 119 -19 q79 0 125.5 48.5 q46.5 48.5 46.5 155.5 q0 40 -8 74.5 q-8 34.5 -25 59.5 q-17 25 -42.5 39.5 q-25.5 14.5 -61.5 14.5 Z" /><glyph glyph-name="c" unicode="c" d="M484 36 q-35 -25 -82 -37.5 q-47 -12.5 -99 -12.5 q-66 0 -112.5 20 q-46.5 20 -75.5 56 q-29 36 -42 87 q-13 51 -13 113 q0 133 64.5 205.5 q64.5 72.5 185.5 72.5 q53 0 92 -9.5 q39 -9.5 70 -23.5 l-24 -75 q-27 14 -58.5 22 q-31.5 8 -68.5 8 q-163 0 -163 -200 q0 -38 9 -73.5 q9 -35.5 29 -63 q20 -27.5 52.5 -44.5 q32.5 -17 79.5 -17 q42 0 73.5 11.5 q31.5 11.5 52.5 27.5 l30 -67 Z" /><glyph glyph-name="d" unicode="d" d="M538 181 q0 -51 1.5 -95.5 q1.5 -44.5 9.5 -87.5 l-61 0 l-23 80 l-10 0 q-23 -40 -67.5 -66 q-44.5 -26 -103.5 -26 q-113 0 -168.5 67 q-55.5 67 -55.5 206 q0 134 68.5 205.5 q68.5 71.5 192.5 71.5 q21 0 37.5 -1.5 q16.5 -1.5 31 -3.5 q14.5 -2 28 -6 q13.5 -4 28.5 -8 l0 183 l92 0 l0 -519 ZM446 428 q-23 17 -49.5 23.5 q-26.5 6.5 -70.5 6.5 q-81 0 -125.5 -47 q-44.5 -47 -44.5 -153 q0 -42 8 -77.5 q8 -35.5 25 -61.5 q17 -26 45 -40.5 q28 -14.5 69 -14.5 q61 0 95 30.5 q34 30.5 48 90.5 l0 243 Z" /><glyph glyph-name="e" unicode="e" d="M515 43 q-35 -26 -87 -41.5 q-52 -15.5 -113 -15.5 q-66 0 -114.5 19.5 q-48.5 19.5 -79.5 55.5 q-31 36 -46 87 q-15 51 -15 114 q0 135 66.5 206.5 q66.5 71.5 189.5 71.5 q39 0 78 -8.5 q39 -8.5 70 -32 q31 -23.5 50.5 -64.5 q19.5 -41 19.5 -107 q0 -16 -1 -37 q-1 -21 -4 -41 l-375 0 q2 -92 44 -139 q42 -47 143 -47 q42 0 80 14.5 q38 14.5 59 34.5 l35 -70 ZM446 316 q2 80 -32.5 113 q-34.5 33 -96.5 33 q-70 0 -111 -33 q-41 -33 -48 -113 l288 0 Z" /><glyph glyph-name="f" unicode="f" d="M24 525 l89 0 l0 14 q0 49 9 82.5 q9 33.5 28.5 54 q19.5 20.5 51 29.5 q31.5 9 76.5 9 q38 0 66.5 -4.5 q28.5 -4.5 59.5 -15.5 l-20 -75 q-26 11 -48.5 14 q-22.5 3 -43.5 3 q-28 0 -45 -5 q-17 -5 -26.5 -17.5 q-9.5 -12.5 -12.5 -34 q-3 -21.5 -3 -54.5 l154 0 l0 -78 l-154 0 l0 -447 l-92 0 l0 447 l-89 0 l0 78 Z" /><glyph glyph-name="g" unicode="g" d="M537 -3 q0 -103 -60.5 -153.5 q-60.5 -50.5 -177.5 -50.5 q-68 0 -110 8 q-42 8 -72 22 l22 83 q13 -6 30 -12.5 q17 -6.5 36 -11.5 q19 -5 38.5 -8 q19.5 -3 37.5 -3 q49 0 81 8.5 q32 8.5 51 26.5 q19 18 26 46 q7 28 7 67 l0 37 l-11 0 q-16 -26 -56 -42 q-40 -16 -97 -16 q-114 0 -168 61.5 q-54 61.5 -54 198.5 q0 135 70 208 q70 73 208 73 q66 0 113.5 -8 q47.5 -8 85.5 -21 l0 -513 ZM302 76 q61 0 95.5 31 q34.5 31 47.5 81 l0 258 q-23 7 -53 11 q-30 4 -68 4 q-78 0 -122 -49.5 q-44 -49.5 -44 -151.5 q0 -88 32.5 -136 q32.5 -48 111.5 -48 Z" /><glyph glyph-name="h" unicode="h" d="M461 0 l0 290 q0 43 -5.5 74.5 q-5.5 31.5 -20 52.5 q-14.5 21 -39 31 q-24.5 10 -61.5 10 q-26 0 -51 -9 q-25 -9 -46 -25 q-21 -16 -36 -38.5 q-15 -22.5 -22 -50.5 l0 -335 l-92 0 l0 700 l92 0 l0 -240 l11 0 q30 36 72 58 q42 22 104 22 q48 0 83 -10.5 q35 -10.5 58 -37 q23 -26.5 34 -71 q11 -44.5 11 -111.5 l0 -310 l-92 0 Z" /><glyph glyph-name="k" unicode="k" d="M237 236 l-57 0 l0 -236 l-92 0 l0 700 l92 0 l0 -414 l52 17 l174 222 l108 0 l-167 -203 l1 0 l-55 -40 l63 -45 l185 -237 l-116 0 l-188 236 Z" /><glyph glyph-name="l" unicode="l" d="M192 139 q0 -41 15.5 -58 q15.5 -17 41.5 -17 q16 0 31 2 q15 2 36 8 l12 -68 q-10 -4 -24 -7.5 q-14 -3.5 -29 -6.5 q-15 -3 -30 -4.5 q-15 -1.5 -27 -1.5 q-54 0 -86 27.5 q-32 27.5 -32 91.5 l0 595 l92 0 l0 -561 Z" /><glyph glyph-name="m" unicode="m" d="M428 0 l0 288 q0 42 -4 74 q-4 32 -16 53.5 q-12 21.5 -33.5 32 q-21.5 10.5 -55.5 10.5 q-53 0 -88.5 -29.5 q-35.5 -29.5 -50.5 -75.5 l0 -353 l-92 0 l0 525 l63 0 l18 -70 l10 0 q32 36 73.5 60.5 q41.5 24.5 105.5 24.5 q54 0 90.5 -23 q36.5 -23 55.5 -77 q30 46 76 73 q46 27 103 27 q48 0 81.5 -11 q33.5 -11 54.5 -38 q21 -27 31 -73 q10 -46 10 -116 l0 -302 l-92 0 l0 302 q0 40 -4.5 69 q-4.5 29 -16.5 48.5 q-12 19.5 -33.5 29 q-21.5 9.5 -56.5 9.5 q-57 0 -90 -30 q-33 -30 -47 -90 l0 -338 l-92 0 Z" /><glyph glyph-name="n" unicode="n" d="M461 0 l0 290 q0 84 -27 126 q-27 42 -96 42 q-61 0 -101.5 -31.5 q-40.5 -31.5 -56.5 -80.5 l0 -346 l-92 0 l0 525 l64 0 l18 -70 l9 0 q29 36 75.5 60.5 q46.5 24.5 111.5 24.5 q46 0 81 -10.5 q35 -10.5 58.5 -37 q23.5 -26.5 35.5 -71 q12 -44.5 12 -112.5 l0 -309 l-92 0 Z" /><glyph glyph-name="o" unicode="o" d="M60 262 q0 65 17 116.5 q17 51.5 50 87.5 q33 36 80.5 55 q47.5 19 108.5 19 q64 0 112 -21 q48 -21 80 -58.5 q32 -37.5 47.5 -88 q15.5 -50.5 15.5 -110.5 q0 -64 -17.5 -115 q-17.5 -51 -50 -87 q-32.5 -36 -80 -55 q-47.5 -19 -107.5 -19 q-66 0 -114 21 q-48 21 -79.5 58 q-31.5 37 -47 87.5 q-15.5 50.5 -15.5 109.5 ZM158 262 q0 -37 8.5 -72.5 q8.5 -35.5 27.5 -63.5 q19 -28 49 -45 q30 -17 74 -17 q156 0 156 198 q0 39 -8.5 75 q-8.5 36 -27 63.5 q-18.5 27.5 -48.5 44.5 q-30 17 -72 17 q-78 0 -118.5 -49.5 q-40.5 -49.5 -40.5 -150.5 Z" /><glyph glyph-name="p" unicode="p" d="M88 525 l62 0 l18 -67 l9 0 q27 39 70 60.5 q43 21.5 97 21.5 q114 0 170 -63.5 q56 -63.5 56 -202.5 q0 -66 -18.5 -119.5 q-18.5 -53.5 -53 -91 q-34.5 -37.5 -84 -57.5 q-49.5 -20 -110.5 -20 q-20 0 -36.5 1.5 q-16.5 1.5 -30.5 5 q-14 3.5 -28 8 q-14 4.5 -29 10.5 l0 -211 l-92 0 l0 725 ZM323 462 q-60 0 -94 -30 q-34 -30 -49 -92 l0 -242 q23 -16 50 -25 q27 -9 69 -9 q81 0 127 53 q46 53 46 158 q0 85 -34 136 q-34 51 -115 51 Z" /><glyph glyph-name="q" unicode="q" d="M537 -200 l-91 0 l-1 257 l-11 0 q-23 -34 -58.5 -52.5 q-35.5 -18.5 -92.5 -18.5 q-223 0 -223 272 q0 137 71.5 207.5 q71.5 70.5 210.5 70.5 q30 0 59 -3 q29 -3 55 -7.5 q26 -4.5 46.5 -10 q20.5 -5.5 34.5 -11.5 l0 -704 ZM445 438 q-46 20 -120 20 q-81 0 -124 -49 q-43 -49 -43 -149 q0 -44 7.5 -80 q7.5 -36 25 -61.5 q17.5 -25.5 45 -40 q27.5 -14.5 67.5 -14.5 q60 0 93.5 30 q33.5 30 48.5 90 l0 254 Z" /><glyph glyph-name="r" unicode="r" d="M362 438 q-17 5 -33 9 q-16 4 -30 4 q-53 0 -82.5 -27 q-29.5 -27 -36.5 -68 l0 -356 l-92 0 l0 525 l64 0 l18 -70 l9 0 q23 39 53.5 60.5 q30.5 21.5 76.5 21.5 q14 0 33 -2.5 q19 -2.5 38 -8.5 l-18 -88 Z" /><glyph glyph-name="s" unicode="s" d="M353 147 q0 20 -9.5 33.5 q-9.5 13.5 -25.5 23 q-16 9.5 -37 16.5 q-21 7 -44 14 q-29 8 -58.5 17.5 q-29.5 9.5 -53 26 q-23.5 16.5 -38.5 42.5 q-15 26 -15 66 q0 78 46.5 116 q46.5 38 130.5 38 q63 0 106 -12 q43 -12 75 -26 l-22 -78 q-27 13 -64.5 25.5 q-37.5 12.5 -82.5 12.5 q-49 0 -73 -16 q-24 -16 -24 -58 q0 -17 9 -28.5 q9 -11.5 24 -20 q15 -8.5 35 -15 q20 -6.5 42 -12.5 q30 -8 60 -18.5 q30 -10.5 55 -28 q25 -17.5 40.5 -44.5 q15.5 -27 15.5 -68 q0 -74 -50 -120.5 q-50 -46.5 -150 -46.5 q-64 0 -111.5 13 q-47.5 13 -79.5 30 l26 80 q28 -15 72 -30 q44 -15 89 -15 q49 0 80.5 17.5 q31.5 17.5 31.5 65.5 Z" /><glyph glyph-name="t" unicode="t" d="M24 525 l89 0 l0 106 l92 24 l0 -130 l158 0 l0 -78 l-158 0 l0 -268 q0 -63 16 -89 q16 -26 55 -26 q25 0 45.5 5.5 q20.5 5.5 46.5 14.5 l21 -65 q-32 -14 -68.5 -23.5 q-36.5 -9.5 -78.5 -9.5 q-70 0 -99.5 38 q-29.5 38 -29.5 124 l0 299 l-89 0 l0 78 Z" /><glyph glyph-name="u" unicode="u" d="M180 525 l0 -289 q0 -42 5 -74 q5 -32 18 -53.5 q13 -21.5 35.5 -33 q22.5 -11.5 57.5 -11.5 q60 0 98 34 q38 34 58 84 l0 343 l92 0 l0 -376 q0 -38 3 -77.5 q3 -39.5 9 -71.5 l-62 0 l-24 87 l-10 0 q-26 -45 -72 -73 q-46 -28 -115 -28 q-46 0 -80.5 11 q-34.5 11 -58 37.5 q-23.5 26.5 -35 70.5 q-11.5 44 -11.5 110 l0 310 l92 0 Z" /><glyph glyph-name="v" unicode="v" d="M242 223 l35 -108 l33 110 l125 300 l100 0 l-245 -536 l-40 0 l-250 536 l108 0 l134 -302 Z" /><glyph glyph-name="w" unicode="w" d="M468 525 l86 -199 l43 -101 l27 -101 l7 0 l23 104 l98 297 l88 0 l-191 -536 l-50 0 l-147 339 l0 -1 l-26 97 l-30 -98 l0 1 l-141 -338 l-48 0 l-199 536 l101 0 l111 -297 l19 -105 l9 0 l28 107 l121 295 l71 0 Z" /><glyph glyph-name="x" unicode="x" d="M233 269 l-189 256 l117 0 l102 -134 l35 -71 l41 71 l106 134 l104 0 l-191 -252 q50 -67 102 -136 q52 -69 102 -137 l-114 0 l-115 149 l-40 75 l-41 -75 l-116 -149 l-106 0 l203 269 Z" /><glyph glyph-name="y" unicode="y" d="M251 193 l31 -101 l13 0 l25 102 l109 331 l94 0 l-172 -475 q-19 -49 -38.5 -95 q-19.5 -46 -43 -81.5 q-23.5 -35.5 -52 -57 q-28.5 -21.5 -65.5 -21.5 q-40 0 -68 9 l15 78 q15 -5 30 -5 q20 0 36.5 5 q16.5 5 30.5 18 q14 13 25.5 36.5 q11.5 23.5 21.5 60.5 l-235 528 l109 0 l134 -332 Z" /><glyph glyph-name="z" unicode="z" d="M48 79 l259 316 l70 52 l-329 0 l0 78 l413 0 l0 -79 l-262 -319 l-70 -49 l332 0 l0 -78 l-413 0 l0 79 Z" /><glyph glyph-name="braceleft" unicode="{" d="M146 108 q0 51 -22.5 70 q-22.5 19 -64.5 19 l0 76 q42 0 64.5 20.5 q22.5 20.5 22.5 64.5 l0 233 q0 48 26 79 q26 31 79 31 l100 0 l0 -80 l-56 0 q-57 0 -57 -62 l0 -224 q0 -44 -23.5 -66.5 q-23.5 -22.5 -53.5 -27.5 l0 -8 q29 -4 53 -30 q24 -26 24 -68 l0 -223 q0 -31 13.5 -46.5 q13.5 -15.5 44.5 -15.5 l55 0 l0 -80 l-100 0 q-49 0 -77 28 q-28 28 -28 81 l0 229 Z" /><glyph glyph-name="bar" unicode="|" d="M89 700 l80 0 l0 -830 l-80 0 l0 830 Z" /><glyph glyph-name="braceright" unicode="}" d="M263 363 q0 -51 23 -70 q23 -19 65 -19 l0 -76 q-42 0 -65 -20.5 q-23 -20.5 -23 -64.5 l0 -233 q0 -48 -26.5 -79 q-26.5 -31 -80.5 -31 l-97 0 l0 80 l55 0 q57 0 57 62 l0 224 q0 44 23.5 66.5 q23.5 22.5 52.5 27.5 l0 8 q-29 4 -52.5 30 q-23.5 26 -23.5 68 l0 223 q0 62 -58 62 l-54 0 l0 80 l98 0 q49 0 77.5 -28 q28.5 -28 28.5 -81 l0 -229 Z" /><glyph glyph-name="asciitilde" unicode="~" d="M34 365 q48 34 86 47 q38 13 70 13 q31 0 57 -8.5 q26 -8.5 50.5 -18.5 q24.5 -10 47.5 -18.5 q23 -8.5 48 -8.5 q20 0 42 7.5 q22 7.5 48 27.5 l37 -71 q-41 -26 -73 -36.5 q-32 -10.5 -59 -10.5 q-29 0 -53.5 8.5 q-24.5 8.5 -48 19 q-23.5 10.5 -46.5 19.5 q-23 9 -50 9 q-25 0 -54 -11 q-29 -11 -66 -38 l-36 70 Z" /><glyph glyph-name="nonbreakingspace" unicode=" " d="" /><glyph glyph-name="exclamdown" unicode="¡" d="M195 -200 l-100 0 l0 343 l20 173 l60 0 l20 -173 l0 -343 ZM76 463 q0 29 18.5 46 q18.5 17 48.5 17 q30 0 48.5 -17 q18.5 -17 18.5 -46 q0 -27 -18.5 -45 q-18.5 -18 -48.5 -18 q-30 0 -48.5 18 q-18.5 18 -18.5 45 Z" /><glyph glyph-name="cent" unicode="¢" d="M517 34 q-27 -16 -62 -27.5 q-35 -11.5 -73 -16.5 l0 -97 l-79 0 l0 95 q-58 4 -99 26 q-41 22 -66.5 57.5 q-25.5 35.5 -37.5 83.5 q-12 48 -12 106 q0 122 55 192.5 q55 70.5 160 82.5 l0 94 l79 0 l0 -93 q38 -2 68.5 -9.5 q30.5 -7.5 56.5 -18.5 l-27 -76 q-24 12 -51.5 18 q-27.5 6 -54.5 8 l0 -396 q34 2 64 13 q30 11 53 24 l26 -66 ZM314 457 q-136 -18 -136 -196 q0 -33 7 -65 q7 -32 23.5 -58 q16.5 -26 42 -45.5 q25.5 -19.5 63.5 -26.5 l0 391 Z" /><glyph glyph-name="sterling" unicode="£" d="M44 385 l72 0 q-13 26 -22 55.5 q-9 29.5 -9 70.5 q0 49 16.5 86.5 q16.5 37.5 46.5 63 q30 25.5 72.5 39 q42.5 13.5 95.5 13.5 q67 0 117.5 -11 q50.5 -11 82.5 -25 l-30 -85 q-23 12 -65.5 23.5 q-42.5 11.5 -103.5 11.5 q-63 0 -97.5 -31.5 q-34.5 -31.5 -34.5 -81.5 q0 -39 12 -69.5 q12 -30.5 27 -59.5 l171 0 l0 -80 l-133 0 q6 -19 10 -40 q4 -21 4 -45 q0 -30 -10.5 -61 q-10.5 -31 -30.5 -52 l-40 -32 l0 -5 l64 14 l277 0 l0 -84 l-492 0 l0 84 l2 0 q34 1 59 12 q25 11 41 28.5 q16 17.5 23.5 40 q7.5 22.5 7.5 46.5 q0 28 -6 51 q-6 23 -14 43 l-113 0 l0 80 Z" /><glyph glyph-name="currency" unicode="¤" d="M94 602 l78 -77 l21 -35 q21 16 47.5 23.5 q26.5 7.5 56.5 7.5 q61 0 103 -31 l22 35 l78 77 l54 -56 l-77 -78 l-35 -21 q31 -43 31 -102 q0 -30 -7.5 -56 q-7.5 -26 -23.5 -46 l35 -20 l77 -78 l-54 -56 l-78 77 l-21 34 q-20 -14 -47.5 -22.5 q-27.5 -8.5 -56.5 -8.5 q-61 0 -104 31 l-21 -34 l-78 -77 l-54 56 l77 78 l34 20 q-30 44 -30 102 q0 29 8 54.5 q8 25.5 22 48.5 l-34 20 l-77 78 l54 56 ZM199 345 q0 -44 27 -73 q27 -29 71 -29 q43 0 70.5 29 q27.5 29 27.5 73 q0 43 -27.5 72.5 q-27.5 29.5 -70.5 29.5 q-44 0 -71 -29.5 q-27 -29.5 -27 -72.5 Z" /><glyph glyph-name="yen" unicode="¥" d="M114 331 l102 0 l-220 369 l117 0 l175 -297 l17 -64 l2 0 l19 66 l167 295 l106 0 l-216 -369 l103 0 l0 -66 l-136 0 l0 -73 l136 0 l0 -66 l-136 0 l0 -126 l-100 0 l0 126 l-136 0 l0 66 l136 0 l0 73 l-136 0 l0 66 Z" /><glyph glyph-name="brokenbar" unicode="¦" d="M89 208 l80 0 l0 -338 l-80 0 l0 338 ZM169 362 l-80 0 l0 338 l80 0 l0 -338 Z" /><glyph glyph-name="section" unicode="§" d="M64 353 q0 31 16.5 60 q16.5 29 43.5 52 l44 14 q-28 15 -45.5 40 q-17.5 25 -17.5 65 q0 57 45 93 q45 36 127 36 q62 0 105 -10 q43 -10 73 -24 l-24 -77 q-24 11 -61.5 21 q-37.5 10 -78.5 10 q-48 0 -70 -15 q-22 -15 -22 -41 q0 -24 21.5 -37 q21.5 -13 54 -23 q32.5 -10 70 -20 q37.5 -10 70 -27.5 q32.5 -17.5 54 -46.5 q21.5 -29 21.5 -76 q0 -31 -16 -59 q-16 -28 -43 -51 l-50 -14 q30 -16 49 -41 q19 -25 19 -66 q0 -32 -13 -56 q-13 -24 -36.5 -40.5 q-23.5 -16.5 -55 -24.5 q-31.5 -8 -67.5 -8 q-66 0 -107.5 12 q-41.5 12 -71.5 26 l24 75 q26 -11 61 -22 q35 -11 80 -11 q43 0 67.5 12.5 q24.5 12.5 24.5 43.5 q0 25 -21.5 38.5 q-21.5 13.5 -54 23.5 q-32.5 10 -70 20 q-37.5 10 -70 27.5 q-32.5 17.5 -54 45.5 q-21.5 28 -21.5 75 ZM395 345 q0 24 -14 39.5 q-14 15.5 -36.5 26 q-22.5 10.5 -51.5 18.5 q-29 8 -60 18 q-30 -13 -52 -36 q-22 -23 -22 -56 q0 -24 13 -39.5 q13 -15.5 35 -25.5 q22 -10 50.5 -18 q28.5 -8 58.5 -17 q14 6 28 15 q14 9 25.5 21 q11.5 12 18.5 25.5 q7 13.5 7 28.5 Z" /><glyph glyph-name="dieresis" unicode="¨" d="M60 653 q0 24 16 40 q16 16 42 16 q25 0 40.5 -16 q15.5 -16 15.5 -40 q0 -23 -15.5 -39 q-15.5 -16 -40.5 -16 q-26 0 -42 16 q-16 16 -16 39 ZM275 653 q0 24 15.5 40 q15.5 16 41.5 16 q26 0 41.5 -16 q15.5 -16 15.5 -40 q0 -23 -15.5 -39 q-15.5 -16 -41.5 -16 q-26 0 -41.5 16 q-15.5 16 -15.5 39 Z" /><glyph glyph-name="copyright" unicode="©" d="M53 288 q0 89 30 160 q30 71 81.5 120 q51.5 49 121 75 q69.5 26 148.5 26 q79 0 148 -26 q69 -26 121 -75 q52 -49 82 -120 q30 -71 30 -160 q0 -89 -30 -160 q-30 -71 -82 -120 q-52 -49 -121 -75 q-69 -26 -148 -26 q-87 0 -157 26 q-70 26 -120 75 q-50 49 -77 120 q-27 71 -27 160 ZM135 288 q0 -73 23 -129.5 q23 -56.5 63.5 -95 q40.5 -38.5 95 -58.5 q54.5 -20 117.5 -20 q63 0 117.5 20 q54.5 20 95 58.5 q40.5 38.5 63.5 95 q23 56.5 23 129.5 q0 73 -23 129.5 q-23 56.5 -63.5 95 q-40.5 38.5 -95 58.5 q-54.5 20 -117.5 20 q-63 0 -117.5 -20 q-54.5 -20 -95 -58.5 q-40.5 -38.5 -63.5 -95 q-23 -56.5 -23 -129.5 ZM560 114 q-24 -14 -56 -22 q-32 -8 -73 -8 q-87 0 -132.5 55 q-45.5 55 -45.5 149 q0 98 48.5 151 q48.5 53 129.5 53 q20 0 35.5 -2 q15.5 -2 29.5 -6 q14 -4 27.5 -9.5 q13.5 -5.5 29.5 -12.5 l-29 -69 q-23 11 -43 16 q-20 5 -36 5 q-42 0 -69.5 -27 q-27.5 -27 -27.5 -99 q0 -59 26.5 -92.5 q26.5 -33.5 78.5 -33.5 q26 0 46 5 q20 5 37 14 l24 -67 Z" /><glyph glyph-name="ordfeminine" unicode="ª" d="M78 675 q27 14 73.5 23.5 q46.5 9.5 102.5 9.5 q70 0 96 -26.5 q26 -26.5 26 -77.5 q0 -38 -1.5 -72.5 q-1.5 -34.5 -1.5 -66.5 q0 -23 1.5 -44.5 q1.5 -21.5 6.5 -40.5 l-69 0 l-14 48 l-4 0 q-7 -8 -17 -17.5 q-10 -9.5 -23.5 -17 q-13.5 -7.5 -31.5 -12.5 q-18 -5 -42 -5 q-56 0 -90 26 q-34 26 -34 70 q0 31 16 52 q16 21 44.5 34 q28.5 13 66 19 q37.5 6 81.5 6 q8 0 15 -0.5 q7 -0.5 15 -0.5 q4 36 -7.5 50.5 q-11.5 14.5 -54.5 14.5 q-45 0 -81.5 -8.5 q-36.5 -8.5 -56.5 -18.5 l-16 55 ZM294 527 q-12 1 -24 1.5 q-12 0.5 -24 0.5 q-21 0 -40.5 -2 q-19.5 -2 -34 -8 q-14.5 -6 -23 -15.5 q-8.5 -9.5 -8.5 -24.5 q0 -19 15 -29.5 q15 -10.5 41 -10.5 q23 0 40 5 q17 5 28.5 13 q11.5 8 18.5 17.5 q7 9.5 11 18.5 l0 34 Z" /><glyph glyph-name="guillemotleft" unicode="«" d="M242 260 l174 225 l58 -51 l-101 -134 l-52 -40 l52 -36 l107 -132 l-58 -50 l-180 218 ZM40 259 l176 230 l60 -52 l-102 -136 l-53 -41 l53 -36 l109 -133 l-61 -53 l-182 221 Z" /><glyph glyph-name="logicalnot" unicode="¬" d="M45 398 l467 0 l0 -201 l-86 0 l0 117 l-381 0 l0 84 Z" /><glyph glyph-name="registered" unicode="®" d="M86 432 q0 70 23 124 q23 54 62.5 90.5 q39.5 36.5 92 55.5 q52.5 19 111.5 19 q61 0 113.5 -19 q52.5 -19 91.5 -55.5 q39 -36.5 61.5 -90.5 q22.5 -54 22.5 -124 q0 -70 -23 -123.5 q-23 -53.5 -62.5 -90 q-39.5 -36.5 -92 -55.5 q-52.5 -19 -111.5 -19 q-60 0 -113 19 q-53 19 -92 55.5 q-39 36.5 -61.5 90 q-22.5 53.5 -22.5 123.5 ZM160 432 q0 -55 17.5 -96 q17.5 -41 46.5 -68 q29 -27 68 -40.5 q39 -13.5 83 -13.5 q46 0 85.5 13 q39.5 13 68 40 q28.5 27 45 68 q16.5 41 16.5 97 q0 55 -17 96 q-17 41 -46.5 68.5 q-29.5 27.5 -68.5 41 q-39 13.5 -83 13.5 q-47 0 -86.5 -14 q-39.5 -14 -68 -41.5 q-28.5 -27.5 -44.5 -68.5 q-16 -41 -16 -95 ZM265 572 q17 5 48.5 8 q31.5 3 58.5 3 q22 0 42 -4.5 q20 -4.5 35 -14.5 q15 -10 24 -26 q9 -16 9 -39 q0 -34 -22.5 -52.5 q-22.5 -18.5 -54.5 -20.5 l31 -15 l77 -117 l-66 0 l-75 112 l-52 16 l0 -128 l-55 0 l0 278 ZM360 535 q-11 0 -22 -0.5 q-11 -0.5 -18 -4.5 l0 -76 l37 0 q32 0 49 10 q17 10 17 33 q0 18 -16.5 28 q-16.5 10 -46.5 10 Z" /><glyph glyph-name="macron" unicode="¯" d="M60 666 l328 0 l0 -69 l-328 0 l0 69 Z" /><glyph glyph-name="degree" unicode="°" d="M90 566 q0 32 13 59 q13 27 34.5 46.5 q21.5 19.5 50 30.5 q28.5 11 60.5 11 q32 0 61 -10 q29 -10 50.5 -29 q21.5 -19 34.5 -46.5 q13 -27.5 13 -61.5 q0 -34 -13 -61 q-13 -27 -34.5 -46 q-21.5 -19 -50.5 -29 q-29 -10 -61 -10 q-32 0 -60.5 10 q-28.5 10 -50 29 q-21.5 19 -34.5 46 q-13 27 -13 61 ZM165 566 q0 -36 25.5 -55.5 q25.5 -19.5 57.5 -19.5 q16 0 31 5 q15 5 27 14.5 q12 9.5 19 23.5 q7 14 7 32 q0 18 -7 32 q-7 14 -19 24 q-12 10 -27 15 q-15 5 -31 5 q-32 0 -57.5 -20 q-25.5 -20 -25.5 -56 Z" /><glyph glyph-name="plusminus" unicode="±" d="M43 512 l191 0 l0 187 l86 0 l0 -187 l191 0 l0 -84 l-191 0 l0 -125 l-86 0 l0 125 l-191 0 l0 84 ZM43 252 l468 0 l0 -84 l-468 0 l0 84 Z" /><glyph glyph-name="acute" unicode="´" d="M124 720 l104 0 l0 -23 l-112 -127 l-56 0 l64 150 Z" /><glyph glyph-name="mu" unicode="µ" d="M171 525 l0 -286 q0 -88 28.5 -132.5 q28.5 -44.5 100.5 -44.5 q66 0 111 38.5 q45 38.5 62 100.5 l0 324 l92 0 l0 -356 q0 -42 2.5 -85.5 q2.5 -43.5 12.5 -83.5 l-60 0 l-33 86 l-12 0 q-12 -19 -30 -37 q-18 -18 -41 -31.5 q-23 -13.5 -52 -22 q-29 -8.5 -62 -8.5 q-53 0 -82 15.5 q-29 15.5 -50 40.5 l-14 0 l27 -120 l0 -124 l-92 0 l0 726 l92 0 Z" /><glyph glyph-name="paragraph" unicode="¶" d="M376 700 l80 0 l0 -830 l-80 0 l0 830 ZM202 307 q-35 0 -64.5 17 q-29.5 17 -51.5 45 q-22 28 -34 63.5 q-12 35.5 -12 71.5 q0 36 13 71.5 q13 35.5 37.5 63 q24.5 27.5 59.5 44.5 q35 17 79 17 l53 0 l0 -830 l-80 0 l0 437 Z" /><glyph glyph-name="periodcentered" unicode="·" d="M78 301 q0 29 18.5 46 q18.5 17 48.5 17 q30 0 48.5 -17 q18.5 -17 18.5 -46 q0 -27 -18.5 -45 q-18.5 -18 -48.5 -18 q-30 0 -48.5 18 q-18.5 18 -18.5 45 Z" /><glyph glyph-name="cedilla" unicode="¸" d="M197 0 l-32 -53 q49 -8 72.5 -26 q23.5 -18 23.5 -51 q0 -42 -37 -67.5 q-37 -25.5 -103 -25.5 q-13 0 -26.5 1 q-13.5 1 -27.5 4 l9 36 q35 -2 55 1 q20 3 30 10 q10 7 12.5 15.5 q2.5 8.5 2.5 16.5 q0 17 -25.5 26.5 q-25.5 9.5 -73.5 14.5 l59 98 l61 0 Z" /><glyph glyph-name="ordmasculine" unicode="º" d="M50 542 q0 44 13 76 q13 32 36 53 q23 21 54.5 31 q31.5 10 68.5 10 q37 0 68.5 -9.5 q31.5 -9.5 55 -29.5 q23.5 -20 36.5 -52.5 q13 -32.5 13 -78.5 q0 -46 -13 -78.5 q-13 -32.5 -36.5 -52.5 q-23.5 -20 -55 -29.5 q-31.5 -9.5 -68.5 -9.5 q-37 0 -68.5 9.5 q-31.5 9.5 -54.5 29.5 q-23 20 -36 52.5 q-13 32.5 -13 78.5 ZM138 542 q0 -54 21.5 -79.5 q21.5 -25.5 62.5 -25.5 q40 0 62.5 23 q22.5 23 22.5 82 q0 60 -22 82.5 q-22 22.5 -63 22.5 q-40 0 -62 -22.5 q-22 -22.5 -22 -82.5 Z" /><glyph glyph-name="guillemotright" unicode="»" d="M281 267 l-173 -225 l-58 51 l100 134 l52 40 l-52 36 l-106 131 l57 51 l180 -218 ZM483 268 l-175 -230 l-61 53 l103 135 l52 41 l-52 36 l-109 133 l60 53 l182 -221 Z" /><glyph glyph-name="questiondown" unicode="¿" d="M318 317 q4 -49 -7.5 -84 q-11.5 -35 -31.5 -62.5 q-20 -27.5 -44.5 -50 q-24.5 -22.5 -46 -45 q-21.5 -22.5 -36 -47.5 q-14.5 -25 -14.5 -59 q0 -45 26.5 -72 q26.5 -27 92.5 -27 q19 0 40 4 q21 4 40.5 11 q19.5 7 37.5 15 q18 8 33 17 l34 -71 q-42 -26 -89.5 -41 q-47.5 -15 -117.5 -15 q-48 0 -85 12.5 q-37 12.5 -62 34.5 q-25 22 -37.5 52 q-12.5 30 -12.5 66 q0 47 15 81 q15 34 37 60 q22 26 48.5 48 q26.5 22 48.5 46.5 q22 24.5 37 54.5 q15 30 15 72 l79 0 ZM206 463 q0 29 18.5 46 q18.5 17 48.5 17 q30 0 48.5 -17 q18.5 -17 18.5 -46 q0 -27 -18.5 -45 q-18.5 -18 -48.5 -18 q-30 0 -48.5 18 q-18.5 18 -18.5 45 Z" /><glyph glyph-name="Aring" unicode="å" d="M205 769 q0 37 27 61.5 q27 24.5 91 24.5 q58 0 88.5 -22 q30.5 -22 30.5 -64 q0 -31 -15 -47 q-15 -16 -29 -22 q-17 -9 -41 -13 l280 -687 l-104 0 l-76 183 l-277 0 l-74 -183 l-98 0 l279 687 q-22 4 -43 13 q-10 5 -24.5 21 q-14.5 16 -14.5 48 ZM210 267 l218 0 l-81 199 l-27 107 l-2 0 l-27 -109 l-81 -197 ZM275 769 q0 -15 11 -26 q11 -11 37 -11 q49 0 49 37 q0 18 -12 28.5 q-12 10.5 -37 10.5 q-25 0 -36.5 -10.5 q-11.5 -10.5 -11.5 -28.5 Z" /><glyph glyph-name="AE" unicode="æ" d="M429 591 l-38 -106 l-136 -212 l178 0 l0 318 l-4 0 ZM433 189 l-230 0 l-120 -189 l-108 0 l456 700 l425 0 l0 -86 l-323 0 l0 -213 l295 0 l0 -86 l-295 0 l0 -229 l328 0 l0 -86 l-428 0 l0 189 Z" /><glyph glyph-name="Ccedilla" unicode="ç" d="M584 30 q-28 -20 -67.5 -29.5 q-39.5 -9.5 -85.5 -12.5 l-24 -41 q49 -8 72.5 -26 q23.5 -18 23.5 -51 q0 -42 -37 -67.5 q-37 -25.5 -103 -25.5 q-13 0 -26.5 1 q-13.5 1 -27.5 4 l9 36 q35 -2 55 1 q20 3 30 10 q10 7 12.5 15.5 q2.5 8.5 2.5 16.5 q0 17 -25.5 26.5 q-25.5 9.5 -73.5 14.5 l51 86 q-64 3 -120.5 26 q-56.5 23 -99 68 q-42.5 45 -67.5 111.5 q-25 66.5 -25 156.5 q0 98 30 167 q30 69 78 112.5 q48 43.5 108 63.5 q60 20 119 20 q66 0 108 -7 q42 -7 71 -18 l-22 -86 q-49 23 -149 23 q-45 0 -87.5 -14.5 q-42.5 -14.5 -76 -47 q-33.5 -32.5 -53.5 -85 q-20 -52.5 -20 -128.5 q0 -68 19 -119 q19 -51 52.5 -85.5 q33.5 -34.5 79 -52 q45.5 -17.5 99.5 -17.5 q49 0 85 8.5 q36 8.5 61 22.5 l24 -77 Z" /><glyph glyph-name="Eth" unicode="ð" d="M0 394 l97 0 l0 306 q20 3 46.5 4.5 q26.5 1.5 55 2.5 q28.5 1 56 1.5 q27.5 0.5 50.5 0.5 q92 0 159.5 -26.5 q67.5 -26.5 112 -73.5 q44.5 -47 66.5 -112 q22 -65 22 -142 q0 -70 -20.5 -135.5 q-20.5 -65.5 -65.5 -116.5 q-45 -51 -115.5 -82 q-70.5 -31 -170.5 -31 q-17 0 -45.5 1 q-28.5 1 -58.5 2 q-30 1 -55.5 2.5 q-25.5 1.5 -36.5 3.5 l0 329 l-97 0 l0 66 ZM197 394 l160 0 l0 -66 l-160 0 l0 -246 q5 -1 19.5 -1.5 q14.5 -0.5 30.5 -1 q16 -0.5 30 -1 q14 -0.5 20 -0.5 q75 0 125.5 23.5 q50.5 23.5 81 62.5 q30.5 39 43 88.5 q12.5 49.5 12.5 102.5 q0 45 -12 92 q-12 47 -41 85.5 q-29 38.5 -77 63.5 q-48 25 -121 25 q-14 0 -30 0 q-16 0 -32 -1 q-16 -1 -29 -2 q-13 -1 -20 -2 l0 -222 Z" /><glyph glyph-name="multiply" unicode="×" d="M140 526 l138 -130 l139 130 l58 -63 l-136 -124 l136 -126 l-58 -62 l-139 130 l-139 -131 l-59 61 l137 128 l-135 124 l58 63 Z" /><glyph glyph-name="Oslash" unicode="ø" d="M132 92 q-38 48 -56 113.5 q-18 65.5 -18 144.5 q0 86 21.5 153.5 q21.5 67.5 62 114 q40.5 46.5 99 71 q58.5 24.5 132.5 24.5 q59 0 106 -14.5 q47 -14.5 84 -41.5 l44 57 l61 -43 l-51 -67 q36 -48 54 -112 q18 -64 18 -142 q0 -86 -21.5 -153.5 q-21.5 -67.5 -62.5 -114 q-41 -46.5 -99.5 -71 q-58.5 -24.5 -132.5 -24.5 q-113 0 -186 52 l-40 -52 l-61 45 l46 60 ZM503 578 q-24 23 -56.5 36 q-32.5 13 -73.5 13 q-96 0 -152.5 -68 q-56.5 -68 -56.5 -209 q0 -48 8.5 -91 q8.5 -43 26.5 -78 l304 397 ZM247 118 q24 -21 55.5 -33 q31.5 -12 70.5 -12 q97 0 153.5 67 q56.5 67 56.5 210 q0 46 -8.5 88 q-8.5 42 -25.5 77 l-302 -397 Z" /><glyph glyph-name="Thorn" unicode="þ" d="M89 700 l100 0 l0 -74 q43 3 89 3 q51 0 103.5 -9 q52.5 -9 95.5 -33 q43 -24 70.5 -66.5 q27.5 -42.5 27.5 -109.5 q0 -63 -25 -107.5 q-25 -44.5 -66.5 -72.5 q-41.5 -28 -95 -41 q-53.5 -13 -110.5 -13 q-6 0 -18.5 0.5 q-12.5 0.5 -26 1 q-13.5 0.5 -26 1.5 q-12.5 1 -18.5 2 l0 -182 l-100 0 l0 700 ZM189 268 q5 -2 16.5 -2.5 q11.5 -0.5 24 -1.5 q12.5 -1 24 -1 q11.5 0 17.5 0 q36 0 71 5.5 q35 5.5 63.5 21.5 q28.5 16 46 45 q17.5 29 17.5 75 q0 40 -17 66 q-17 26 -44 41 q-27 15 -60.5 20.5 q-33.5 5.5 -66.5 5.5 q-27 0 -52.5 -1 q-25.5 -1 -39.5 -5 l0 -269 Z" /><glyph glyph-name="germandbls" unicode="ß" d="M114 549 q0 77 55 120 q55 43 151 43 q57 0 97.5 -12 q40.5 -12 66 -32 q25.5 -20 37 -46.5 q11.5 -26.5 11.5 -55.5 q0 -31 -10 -53.5 q-10 -22.5 -25 -39 q-15 -16.5 -32.5 -29 q-17.5 -12.5 -32.5 -24.5 q-15 -12 -25 -25 q-10 -13 -10 -30 q0 -22 17 -34.5 q17 -12.5 43 -21.5 q26 -9 56 -18 q30 -9 56 -25 q26 -16 43 -42.5 q17 -26.5 17 -69.5 q0 -31 -13.5 -61 q-13.5 -30 -39.5 -54 q-26 -24 -64.5 -38.5 q-38.5 -14.5 -88.5 -14.5 q-26 0 -46.5 2 q-20.5 2 -37 6.5 q-16.5 4.5 -31.5 10.5 q-15 6 -30 15 l26 73 q13 -7 26 -12.5 q13 -5.5 27 -9 q14 -3.5 31 -5.5 q17 -2 39 -2 q19 0 38.5 5.5 q19.5 5.5 35 16 q15.5 10.5 25 25 q9.5 14.5 9.5 32.5 q0 30 -17 47 q-17 17 -43 27.5 q-26 10.5 -56 18.5 q-30 8 -56 22 q-26 14 -43 36.5 q-17 22.5 -17 62.5 q0 30 10 50.5 q10 20.5 25 36.5 q15 16 33 28.5 q18 12.5 33 25 q15 12.5 25 27.5 q10 15 10 36 q0 14 -5.5 27 q-5.5 13 -19 23 q-13.5 10 -36 16 q-22.5 6 -55.5 6 q-64 0 -90 -24.5 q-26 -24.5 -26 -87.5 l0 -521 l-93 0 l0 445 l-90 0 l0 80 l90 0 l0 24 Z" /><glyph glyph-name="ae" unicode="æ" d="M397 236 q-17 2 -35.5 1.5 q-18.5 -0.5 -35.5 -0.5 q-36 0 -69 -4 q-33 -4 -58.5 -14 q-25.5 -10 -40.5 -27 q-15 -17 -15 -43 q0 -36 28.5 -58.5 q28.5 -22.5 73.5 -22.5 q33 0 58 8 q25 8 43.5 20 q18.5 12 31 26.5 q12.5 14.5 19.5 28.5 l0 85 ZM421 92 q-15 -18 -35 -36 q-20 -18 -45 -32 q-25 -14 -56.5 -23 q-31.5 -9 -69.5 -9 q-37 0 -68 10 q-31 10 -53.5 29 q-22.5 19 -35.5 46.5 q-13 27.5 -13 61.5 q0 45 20.5 76 q20.5 31 58 49.5 q37.5 18.5 90 27 q52.5 8.5 115.5 8.5 q15 0 33.5 -0.5 q18.5 -0.5 35.5 1.5 l0 3 q3 24 3 53 q0 56 -27 78 q-27 22 -93 22 q-18 0 -40.5 -2.5 q-22.5 -2.5 -46 -7 q-23.5 -4.5 -46 -11 q-22.5 -6.5 -40.5 -13.5 l-25 66 q42 21 100 33.5 q58 12.5 123 12.5 q57 0 97 -19 q40 -19 62 -51 q16 19 37.5 33 q21.5 14 45.5 23.5 q24 9.5 50 14 q26 4.5 50 4.5 q40 0 79 -8.5 q39 -8.5 70 -31.5 q31 -23 50 -65 q19 -42 19 -108 q0 -14 -0.5 -31.5 q-0.5 -17.5 -3.5 -43.5 l-376 0 q1 -45 11.5 -80.5 q10.5 -35.5 33 -60 q22.5 -24.5 58 -37.5 q35.5 -13 85.5 -13 q38 0 76 12 q38 12 63 31 l33 -61 q-34 -25 -88 -41 q-54 -16 -110 -16 q-70 0 -128.5 28 q-58.5 28 -87.5 78 l-11 0 ZM777 318 q1 40 -7.5 67.5 q-8.5 27.5 -25.5 44.5 q-17 17 -41 24.5 q-24 7.5 -54 7.5 q-69 0 -109 -33 q-40 -33 -50 -111 l287 0 Z" /><glyph glyph-name="ccedilla" unicode="ç" d="M484 36 q-32 -23 -74 -35 q-42 -12 -89 -14 l-23 -40 q49 -8 72.5 -26 q23.5 -18 23.5 -51 q0 -42 -37 -67.5 q-37 -25.5 -103 -25.5 q-13 0 -26.5 1 q-13.5 1 -27.5 4 l9 36 q35 -2 55 1 q20 3 30 10 q10 7 12.5 15.5 q2.5 8.5 2.5 16.5 q0 17 -25.5 26.5 q-25.5 9.5 -73.5 14.5 l52 87 q-55 6 -93.5 28 q-38.5 22 -62.5 57.5 q-24 35.5 -35 83 q-11 47.5 -11 104.5 q0 133 64.5 205.5 q64.5 72.5 185.5 72.5 q53 0 92 -9.5 q39 -9.5 70 -23.5 l-24 -75 q-27 14 -58.5 22 q-31.5 8 -68.5 8 q-163 0 -163 -200 q0 -38 9 -73 q9 -35 29 -63 q20 -28 52.5 -44.5 q32.5 -16.5 79.5 -16.5 q42 0 73.5 11.5 q31.5 11.5 52.5 27.5 l30 -68 Z" /><glyph glyph-name="eth" unicode="ð" d="M434 669 q69 -60 110 -149 q41 -89 41 -203 q0 -86 -20.5 -148 q-20.5 -62 -56 -103 q-35.5 -41 -83.5 -60.5 q-48 -19.5 -102 -19.5 q-69 0 -118.5 23 q-49.5 23 -82 61 q-32.5 38 -47.5 87.5 q-15 49.5 -15 103.5 q0 52 17.5 100.5 q17.5 48.5 50.5 86.5 q33 38 81.5 61 q48.5 23 110.5 23 q50 0 83.5 -12.5 q33.5 -12.5 53.5 -31.5 l7 3 q-20 40 -43.5 72 q-23.5 32 -52.5 58 l-66 -49 l-38 40 l60 44 q-29 20 -59 33.5 q-30 13.5 -62 23.5 l82 38 q54 -17 103 -47 l64 48 l35 -44 l-53 -39 ZM158 259 q0 -95 47.5 -145 q47.5 -50 123.5 -50 q35 0 65 14 q30 14 52 43 q22 29 34.5 74 q12.5 45 12.5 107 q0 20 -1 44.5 q-1 24.5 -6 38.5 q-10 18 -27 31 q-17 13 -38 21.5 q-21 8.5 -44.5 12.5 q-23.5 4 -44.5 4 q-46 0 -79 -15.5 q-33 -15.5 -54 -42.5 q-21 -27 -31 -62.5 q-10 -35.5 -10 -74.5 Z" /><glyph glyph-name="divide" unicode="÷" d="M43 379 l468 0 l0 -84 l-468 0 l0 84 ZM210 525 q0 29 18.5 46 q18.5 17 48.5 17 q30 0 48.5 -17 q18.5 -17 18.5 -46 q0 -27 -18.5 -45 q-18.5 -18 -48.5 -18 q-30 0 -48.5 18 q-18.5 18 -18.5 45 ZM210 149 q0 29 18.5 46 q18.5 17 48.5 17 q30 0 48.5 -17 q18.5 -17 18.5 -46 q0 -27 -18.5 -45 q-18.5 -18 -48.5 -18 q-30 0 -48.5 18 q-18.5 18 -18.5 45 Z" /><glyph glyph-name="oslash" unicode="ø" d="M108 73 q-28 36 -41.5 83.5 q-13.5 47.5 -13.5 104.5 q0 131 66.5 204.5 q66.5 73.5 189.5 73.5 q43 0 78 -9 q35 -9 63 -26 l30 37 l54 -44 l-31 -39 q30 -37 45 -87 q15 -50 15 -110 q0 -131 -66.5 -203 q-66.5 -72 -187.5 -72 q-46 0 -83 10 q-37 10 -66 29 l-31 -41 l-57 44 l36 45 ZM213 95 q37 -31 96 -31 q156 0 156 197 q0 33 -6 64.5 q-6 31.5 -20 57.5 l-226 -288 ZM399 432 q-17 14 -39.5 21.5 q-22.5 7.5 -50.5 7.5 q-158 0 -158 -200 q0 -30 5.5 -59 q5.5 -29 17.5 -54 l225 284 Z" /><glyph glyph-name="thorn" unicode="þ" d="M88 701 l92 0 l0 -235 l8 0 q26 34 63.5 53.5 q37.5 19.5 91.5 19.5 q114 0 170.5 -63 q56.5 -63 56.5 -202 q0 -66 -19 -119.5 q-19 -53.5 -53.5 -91 q-34.5 -37.5 -83.5 -57.5 q-49 -20 -110 -20 q-20 0 -35 1.5 q-15 1.5 -29.5 4.5 q-14.5 3 -28.5 8 q-14 5 -31 11 l0 -211 l-92 0 l0 901 ZM322 461 q-111 0 -142 -124 l0 -237 q21 -16 50 -26 q29 -10 68 -10 q81 0 127.5 53 q46.5 53 46.5 158 q0 42 -8 76.5 q-8 34.5 -26 58.5 q-18 24 -46.5 37.5 q-28.5 13.5 -69.5 13.5 Z" /><glyph glyph-name="dotlessi" unicode="&#x131;" d="M114 525 l92 0 l0 -525 l-92 0 l0 525 Z" /><glyph glyph-name="OE" unicode="&#x152;" d="M522 605 q-29 11 -68 16.5 q-39 5.5 -81 5.5 q-97 0 -153 -68 q-56 -68 -56 -209 q0 -57 12.5 -107 q12.5 -50 38.5 -88 q26 -38 67.5 -60 q41.5 -22 98.5 -22 q32 0 65 2.5 q33 2.5 76 15.5 l0 514 ZM522 0 q-26 -6 -64 -9.5 q-38 -3.5 -84 -3.5 q-81 0 -140.5 26 q-59.5 26 -98.5 74 q-39 48 -58 115 q-19 67 -19 148 q0 174 83 268.5 q83 94.5 233 94.5 q49 0 82.5 -4 q33.5 -4 65.5 -9 l423 0 l0 -86 l-323 0 l0 -213 l296 0 l0 -86 l-296 0 l0 -229 l329 0 l0 -86 l-429 0 Z" /><glyph glyph-name="oe" unicode="&#x153;" d="M156 261 q0 -39 8.5 -74.5 q8.5 -35.5 27.5 -62.5 q19 -27 49 -43.5 q30 -16.5 73 -16.5 q78 0 118 47 q40 47 40 150 q0 40 -8.5 76.5 q-8.5 36.5 -27.5 64 q-19 27.5 -49 43.5 q-30 16 -73 16 q-78 0 -118 -48.5 q-40 -48.5 -40 -151.5 ZM510 82 q-30 -44 -80 -70 q-50 -26 -116 -26 q-65 0 -113 20.5 q-48 20.5 -79.5 57.5 q-31.5 37 -46.5 87 q-15 50 -15 110 q0 133 65.5 205.5 q65.5 72.5 188.5 72.5 q40 0 70.5 -5.5 q30.5 -5.5 54.5 -17.5 q24 -12 42.5 -31 q18.5 -19 35.5 -45 q34 44 85 71.5 q51 27.5 120 27.5 q39 0 78 -8.5 q39 -8.5 70 -32 q31 -23.5 50.5 -64.5 q19.5 -41 19.5 -106 q0 -15 -0.5 -35 q-0.5 -20 -5.5 -43 l-374 0 q1 -46 11.5 -81 q10.5 -35 32.5 -59 q22 -24 57 -36 q35 -12 85 -12 q39 0 76 11.5 q37 11.5 63 30.5 l33 -62 q-35 -26 -86.5 -41 q-51.5 -15 -109.5 -15 q-70 0 -121.5 25 q-51.5 25 -83.5 71 l-7 0 ZM850 316 q2 79 -32.5 113 q-34.5 34 -94.5 34 q-69 0 -109.5 -34 q-40.5 -34 -48.5 -113 l285 0 Z" /><glyph glyph-name="circumflex" unicode="&#x2c6;" d="M209 773 l41 0 q31 -48 63 -94 q32 -46 62 -93 l-80 0 l-45 69 l-26 71 l-31 -71 l-48 -69 l-76 0 l140 187 Z" /><glyph glyph-name="ring" unicode="&#x2da;" d="M67 683 q0 42 29 68.5 q29 26.5 80 26.5 q48 0 80.5 -23.5 q32.5 -23.5 32.5 -71.5 q0 -20 -8.5 -37 q-8.5 -17 -23.5 -29.5 q-15 -12.5 -36 -20 q-21 -7.5 -45 -7.5 q-48 0 -78.5 24.5 q-30.5 24.5 -30.5 69.5 ZM124 683 q0 -20 16.5 -32.5 q16.5 -12.5 35.5 -12.5 q23 0 39.5 11 q16.5 11 16.5 34 q0 23 -17 34.5 q-17 11.5 -39 11.5 q-20 0 -36 -11 q-16 -11 -16 -35 Z" /><glyph glyph-name="tilde" unicode="&#x2dc;" d="M67 696 q32 35 58 47.5 q26 12.5 49 12.5 q18 0 34.5 -6.5 q16.5 -6.5 33 -15 q16.5 -8.5 33 -15 q16.5 -6.5 35.5 -6.5 q25 0 54 24 l22 -48 q-27 -28 -50.5 -39.5 q-23.5 -11.5 -43.5 -11.5 q-19 0 -36 7 q-17 7 -33.5 15 q-16.5 8 -33.5 15 q-17 7 -36 7 q-16 0 -31.5 -6 q-15.5 -6 -34.5 -24 l-20 44 Z" /><glyph glyph-name="afii10051" unicode="&#x402;" d="M355 0 l-100 0 l0 612 l-236 0 l0 88 l572 0 l0 -88 l-236 0 l0 -192 q14 4 52 12.5 q38 8.5 99 8.5 q43 0 85 -10 q42 -10 75.5 -34 q33.5 -24 54 -65 q20.5 -41 20.5 -104 q0 -120 -66.5 -178 q-66.5 -58 -190.5 -58 q-36 0 -52 1 q-16 1 -24 3 l0 87 q13 -2 30.5 -2.5 q17.5 -0.5 47.5 -0.5 q72 0 110.5 34.5 q38.5 34.5 38.5 106.5 q0 40 -12.5 66 q-12.5 26 -34.5 41 q-22 15 -51.5 21 q-29.5 6 -63.5 6 q-18 0 -36.5 -2.5 q-18.5 -2.5 -34.5 -5.5 q-16 -3 -28.5 -6.5 q-12.5 -3.5 -18.5 -5.5 l0 -335 Z" /><glyph glyph-name="afii10053" unicode="&#x404;" d="M582 30 q-33 -24 -83 -33.5 q-50 -9.5 -107 -9.5 q-67 0 -127.5 21.5 q-60.5 21.5 -106.5 66 q-46 44.5 -73 113 q-27 68.5 -27 162.5 q0 98 30 167 q30 69 78 112.5 q48 43.5 108 63.5 q60 20 119 20 q66 0 107.5 -7 q41.5 -7 70.5 -18 l-23 -84 q-49 23 -147 23 q-41 0 -80 -12 q-39 -12 -71 -39 q-32 -27 -54.5 -69.5 q-22.5 -42.5 -29.5 -102.5 l329 0 l0 -86 l-331 0 q4 -60 24.5 -106 q20.5 -46 53.5 -77 q33 -31 76.5 -46.5 q43.5 -15.5 94.5 -15.5 q49 0 85 9 q36 9 61 23 l23 -75 Z" /><glyph glyph-name="afii10056" unicode="&#x407;" d="M74 793 q0 24 16 37.5 q16 13.5 40 13.5 q23 0 39 -13.5 q16 -13.5 16 -37.5 q0 -23 -16 -37 q-16 -14 -39 -14 q-24 0 -40 14 q-16 14 -16 37 ZM214 793 q0 24 16 37.5 q16 13.5 40 13.5 q24 0 40 -13.5 q16 -13.5 16 -37.5 q0 -23 -16 -37 q-16 -14 -40 -14 q-24 0 -40 14 q-16 14 -16 37 ZM149 634 l-80 0 l0 66 l260 0 l0 -66 l-80 0 l0 -568 l80 0 l0 -66 l-260 0 l0 66 l80 0 l0 568 Z" /><glyph glyph-name="afii10058" unicode="&#x409;" d="M594 700 l0 -267 q5 1 17.5 2.5 q12.5 1.5 28 2.5 q15.5 1 31.5 2 q16 1 29 1 q52 0 102 -10 q50 -10 89.5 -34 q39.5 -24 64 -65.5 q24.5 -41.5 24.5 -104.5 q0 -60 -23.5 -104.5 q-23.5 -44.5 -64 -73.5 q-40.5 -29 -95.5 -43.5 q-55 -14.5 -119 -14.5 q-15 0 -37.5 0.5 q-22.5 0.5 -48 2.5 q-25.5 2 -51 5 q-25.5 3 -47.5 8 l0 605 l-220 0 q-5 -99 -11.5 -180 q-6.5 -81 -16.5 -146.5 q-10 -65.5 -23.5 -115.5 q-13.5 -50 -33.5 -87 q-26 -48 -60 -68 q-34 -20 -71 -20 q-21 0 -34.5 2.5 q-13.5 2.5 -27.5 7.5 l13 84 q12 -3 24 -3 q12 0 24.5 4.5 q12.5 4.5 24.5 15 q12 10.5 23 29.5 q15 26 28 70 q13 44 23 112 q10 68 16.5 162.5 q6.5 94.5 9.5 220.5 l412 0 ZM594 83 q14 -4 41 -5 q27 -1 54 -1 q37 0 70.5 8.5 q33.5 8.5 59 26.5 q25.5 18 40.5 45 q15 27 15 65 q0 40 -16 66 q-16 26 -42.5 41 q-26.5 15 -60.5 20.5 q-34 5.5 -69 5.5 q-9 0 -23 -1 q-14 -1 -27.5 -2 q-13.5 -1 -25 -3 q-11.5 -2 -16.5 -3 l0 -263 Z" /><glyph glyph-name="afii10059" unicode="&#x40a;" d="M189 700 l0 -285 l355 0 l0 285 l100 0 l0 -284 q6 1 18.5 2.5 q12.5 1.5 28 2.5 q15.5 1 31.5 2 q16 1 29 1 q52 0 102 -8.5 q50 -8.5 89.5 -31 q39.5 -22.5 63.5 -62.5 q24 -40 24 -103 q0 -60 -23 -103 q-23 -43 -63.5 -71 q-40.5 -28 -96 -41 q-55.5 -13 -119.5 -13 q-15 0 -37.5 1 q-22.5 1 -48 2.5 q-25.5 1.5 -51 4.5 q-25.5 3 -47.5 7 l0 321 l-355 0 l0 -327 l-100 0 l0 700 l100 0 ZM644 83 q14 -3 41.5 -4.5 q27.5 -1.5 53.5 -1.5 q39 0 72.5 7 q33.5 7 58.5 23 q25 16 39.5 42 q14.5 26 14.5 63 q0 40 -15.5 65 q-15.5 25 -41.5 38.5 q-26 13.5 -60 18 q-34 4.5 -71 4.5 q-9 0 -23 -1 q-14 -1 -27.5 -2 q-13.5 -1 -25 -3 q-11.5 -2 -16.5 -3 l0 -246 Z" /><glyph glyph-name="afii10060" unicode="&#x40b;" d="M355 0 l-100 0 l0 612 l-236 0 l0 88 l572 0 l0 -88 l-236 0 l0 -216 q29 15 77.5 30 q48.5 15 110.5 15 q46 0 84.5 -10 q38.5 -10 66.5 -33 q28 -23 43.5 -61 q15.5 -38 15.5 -93 l0 -244 l-100 0 l0 222 q0 133 -133 133 q-51 0 -94.5 -12 q-43.5 -12 -70.5 -33 l0 -310 Z" /><glyph glyph-name="afii10145" unicode="&#x40f;" d="M189 700 l0 -612 l341 0 l0 612 l100 0 l0 -700 l-220 0 l-16 -178 l-63 0 l-22 178 l-220 0 l0 700 l100 0 Z" /><glyph glyph-name="afii10018" unicode="&#x411;" d="M89 700 l424 0 l0 -88 l-324 0 l0 -190 q18 3 44.5 6 q26.5 3 52.5 3 q56 0 106.5 -10 q50.5 -10 89 -34 q38.5 -24 61.5 -64 q23 -40 23 -100 q0 -60 -23.5 -103.5 q-23.5 -43.5 -62.5 -72 q-39 -28.5 -91 -42.5 q-52 -14 -109 -14 q-18 0 -42.5 0.5 q-24.5 0.5 -50.5 2.5 q-26 2 -51.5 5 q-25.5 3 -46.5 8 l0 693 ZM292 77 q34 0 64.5 8 q30.5 8 53.5 24.5 q23 16.5 36.5 41.5 q13.5 25 13.5 59 q0 44 -15 70.5 q-15 26.5 -40.5 41 q-25.5 14.5 -59 19 q-33.5 4.5 -69.5 4.5 q-10 0 -22.5 -1 q-12.5 -1 -25.5 -2 q-13 -1 -23.5 -3 q-10.5 -2 -15.5 -3 l0 -253 q7 -2 19 -3 q12 -1 26 -2 q14 -1 29 -1 q15 0 29 0 Z" /><glyph glyph-name="afii10020" unicode="&#x413;" d="M504 612 l-315 0 l0 -612 l-100 0 l0 700 l415 0 l0 -88 Z" /><glyph glyph-name="afii10021" unicode="&#x414;" d="M708 -128 l-69 0 l-17 128 l-532 0 l-16 -128 l-69 0 l0 216 l78 0 q9 11 27.5 50.5 q18.5 39.5 37 113 q18.5 73.5 31.5 184.5 q13 111 12 264 l417 0 l0 -612 l100 0 l0 -216 ZM508 88 l0 524 l-225 0 q-4 -106 -12.5 -189.5 q-8.5 -83.5 -21 -147.5 q-12.5 -64 -28 -110 q-15.5 -46 -32.5 -77 l319 0 Z" /><glyph glyph-name="afii10024" unicode="&#x416;" d="M392 700 l94 0 l0 -322 l46 14 l213 308 l111 0 l-216 -304 l-45 -33 l56 -41 l239 -322 l-121 0 l-234 320 l-49 0 l0 -320 l-94 0 l0 332 l-46 -14 l-233 -318 l-115 0 l236 312 l53 38 l-51 36 l-223 314 l116 0 l214 -310 l49 0 l0 310 Z" /><glyph glyph-name="afii10025" unicode="&#x417;" d="M149 327 l0 78 l17 0 q9 0 23.5 0 q14.5 0 30 1 q15.5 1 30 1.5 q14.5 0.5 23.5 2.5 q54 7 92 34.5 q38 27.5 38 73.5 q0 31 -11.5 51.5 q-11.5 20.5 -32 33 q-20.5 12.5 -47.5 18 q-27 5.5 -57 5.5 q-58 0 -101 -9 q-43 -9 -66 -20 l-27 80 q10 6 31 12 q21 6 48.5 11 q27.5 5 61 8.5 q33.5 3.5 68.5 3.5 q44 0 87 -8.5 q43 -8.5 76.5 -28.5 q33.5 -20 54.5 -53 q21 -33 21 -83 q0 -50 -35.5 -95 q-35.5 -45 -107.5 -65 l0 -4 q77 -11 121.5 -53.5 q44.5 -42.5 44.5 -114.5 q0 -57 -25 -98.5 q-25 -41.5 -65.5 -68.5 q-40.5 -27 -92 -40 q-51.5 -13 -105.5 -13 q-72 0 -121 8.5 q-49 8.5 -79 20.5 l25 86 q26 -11 71.5 -20 q45.5 -9 111.5 -9 q31 0 62 8 q31 8 56 24 q25 16 40.5 40.5 q15.5 24.5 15.5 58.5 q0 60 -46.5 88 q-46.5 28 -129.5 33 q-13 1 -23 1.5 q-10 0.5 -24 0.5 l-54 0 Z" /><glyph glyph-name="afii10026" unicode="&#x418;" d="M555 463 l6 77 l-4 0 l-48 -79 l-359 -461 l-61 0 l0 700 l100 0 l0 -466 l-9 -76 l5 0 l50 79 l358 463 l62 0 l0 -700 l-100 0 l0 463 Z" /><glyph glyph-name="afii10029" unicode="&#x41b;" d="M494 612 l-220 0 q-5 -99 -11.5 -180 q-6.5 -81 -16.5 -146.5 q-10 -65.5 -23.5 -115.5 q-13.5 -50 -33.5 -87 q-26 -48 -60 -68 q-34 -20 -71 -20 q-21 0 -34.5 2.5 q-13.5 2.5 -27.5 7.5 l13 84 q12 -3 24 -3 q12 0 24.5 4.5 q12.5 4.5 24.5 15 q12 10.5 23 29.5 q15 26 28 70 q13 44 23 112 q10 68 16.5 162.5 q6.5 94.5 9.5 220.5 l412 0 l0 -700 l-100 0 l0 612 Z" /><glyph glyph-name="afii10033" unicode="&#x41f;" d="M530 612 l-341 0 l0 -612 l-100 0 l0 700 l541 0 l0 -700 l-100 0 l0 612 Z" /><glyph glyph-name="afii10037" unicode="&#x423;" d="M311 340 l27 -89 l6 0 l21 92 l142 357 l102 0 l-196 -462 q-29 -67 -51 -113.5 q-22 -46.5 -45.5 -75.5 q-23.5 -29 -50.5 -42 q-27 -13 -66 -13 q-36 0 -57.5 5.5 q-21.5 5.5 -41.5 17.5 l29 82 q21 -12 39.5 -14.5 q18.5 -2.5 34.5 -2.5 q29 0 49.5 25.5 q20.5 25.5 36.5 76.5 l-285 516 l115 0 l191 -360 Z" /><glyph glyph-name="afii10038" unicode="&#x424;" d="M380 77 q-20 -3 -43.5 -4 q-23.5 -1 -45.5 -1 q-52 0 -97 17 q-45 17 -78.5 51.5 q-33.5 34.5 -53 86.5 q-19.5 52 -19.5 123 q0 67 19.5 120.5 q19.5 53.5 55 91 q35.5 37.5 85 57.5 q49.5 20 109.5 20 q14 0 35 -1 q21 -1 33 -4 l0 86 l96 0 l0 -89 q20 5 46 6.5 q26 1.5 43 1.5 q52 0 97.5 -18 q45.5 -18 79 -53.5 q33.5 -35.5 52.5 -87.5 q19 -52 19 -120 q0 -70 -21.5 -124 q-21.5 -54 -58 -90.5 q-36.5 -36.5 -85 -55 q-48.5 -18.5 -102.5 -18.5 q-12 0 -34.5 1.5 q-22.5 1.5 -35.5 5.5 l0 -99 l-96 0 l0 97 ZM550 559 q-15 0 -38.5 -1 q-23.5 -1 -37.5 -5 l0 -398 q11 -2 28 -2.5 q17 -0.5 33 -0.5 q36 0 68 13 q32 13 56 38.5 q24 25.5 38 64.5 q14 39 14 92 q0 44 -11.5 80.5 q-11.5 36.5 -32.5 63 q-21 26.5 -51 41 q-30 14.5 -66 14.5 ZM310 152 q11 0 34 0.5 q23 0.5 38 5.5 l0 397 q-13 2 -31 3 q-18 1 -34 1 q-36 0 -67 -13 q-31 -13 -54.5 -39.5 q-23.5 -26.5 -37 -65.5 q-13.5 -39 -13.5 -91 q0 -45 12 -81.5 q12 -36.5 34 -62.5 q22 -26 52.5 -40 q30.5 -14 66.5 -14 Z" /><glyph glyph-name="afii10040" unicode="&#x426;" d="M723 -128 l-69 0 l-16 128 l-549 0 l0 700 l100 0 l0 -612 l333 0 l0 612 l100 0 l0 -612 l101 0 l0 -216 Z" /><glyph glyph-name="afii10041" unicode="&#x427;" d="M176 700 l0 -221 q0 -67 32 -103.5 q32 -36.5 101 -36.5 q51 0 94.5 12 q43.5 12 70.5 32 l0 317 l100 0 l0 -700 l-100 0 l0 298 q-29 -16 -77.5 -30.5 q-48.5 -14.5 -111.5 -14.5 q-47 0 -85.5 11 q-38.5 11 -66 36 q-27.5 25 -42.5 63.5 q-15 38.5 -15 94.5 l0 242 l100 0 Z" /><glyph glyph-name="afii10042" unicode="&#x428;" d="M89 0 l0 700 l100 0 l0 -612 l241 0 l0 612 l100 0 l0 -612 l240 0 l0 612 l100 0 l0 -700 l-781 0 Z" /><glyph glyph-name="afii10043" unicode="&#x429;" d="M89 0 l0 700 l100 0 l0 -612 l240 0 l0 612 l100 0 l0 -612 l240 0 l0 612 l100 0 l0 -612 l102 0 l0 -216 l-69 0 l-16 128 l-797 0 Z" /><glyph glyph-name="afii10044" unicode="&#x42a;" d="M174 612 l-176 0 l0 88 l276 0 l0 -267 q5 1 17.5 2.5 q12.5 1.5 28.5 2.5 q16 1 32 2 q16 1 29 1 q51 0 101 -10 q50 -10 89.5 -34 q39.5 -24 64 -65.5 q24.5 -41.5 24.5 -104.5 q0 -59 -23 -103.5 q-23 -44.5 -63.5 -74 q-40.5 -29.5 -96 -44 q-55.5 -14.5 -119.5 -14.5 q-15 0 -37.5 0.5 q-22.5 0.5 -48 2.5 q-25.5 2 -51.5 5 q-26 3 -47 8 l0 605 ZM369 77 q37 0 70.5 9 q33.5 9 59 27 q25.5 18 40.5 45 q15 27 15 64 q0 40 -16 66 q-16 26 -42.5 41 q-26.5 15 -60 20.5 q-33.5 5.5 -69.5 5.5 q-9 0 -23 -1 q-14 -1 -27.5 -2 q-13.5 -1 -25 -3 q-11.5 -2 -16.5 -3 l0 -263 q15 -4 42 -5 q27 -1 53 -1 Z" /><glyph glyph-name="afii10045" unicode="&#x42b;" d="M657 700 l100 0 l0 -700 l-100 0 l0 700 ZM89 700 l100 0 l0 -267 q6 1 16 2.5 q10 1.5 22.5 2.5 q12.5 1 26 2 q13.5 1 26.5 1 q52 0 101 -10 q49 -10 87 -34.5 q38 -24.5 60.5 -65.5 q22.5 -41 22.5 -103 q0 -60 -21.5 -105 q-21.5 -45 -59.5 -74 q-38 -29 -91 -43.5 q-53 -14.5 -117 -14.5 q-15 0 -36 0.5 q-21 0.5 -44.5 2.5 q-23.5 2 -47.5 5 q-24 3 -45 8 l0 693 ZM270 77 q37 0 69 9 q32 9 55.5 27 q23.5 18 37 45 q13.5 27 13.5 63 q0 40 -15 66 q-15 26 -39.5 41 q-24.5 15 -57 21 q-32.5 6 -68.5 6 q-19 0 -42 -3 q-23 -3 -34 -6 l0 -263 q14 -4 34.5 -5 q20.5 -1 46.5 -1 Z" /><glyph glyph-name="afii10046" unicode="&#x42c;" d="M89 700 l100 0 l0 -267 q5 1 17.5 2.5 q12.5 1.5 28 2.5 q15.5 1 31.5 2 q16 1 29 1 q52 0 102 -10 q50 -10 89.5 -34 q39.5 -24 64 -65.5 q24.5 -41.5 24.5 -104.5 q0 -60 -23.5 -104.5 q-23.5 -44.5 -64 -73.5 q-40.5 -29 -95.5 -43.5 q-55 -14.5 -119 -14.5 q-15 0 -37.5 0.5 q-22.5 0.5 -48 2.5 q-25.5 2 -51 5 q-25.5 3 -47.5 8 l0 693 ZM284 77 q37 0 70.5 8.5 q33.5 8.5 59 26.5 q25.5 18 40.5 45 q15 27 15 65 q0 40 -16 66 q-16 26 -42.5 41 q-26.5 15 -60.5 20.5 q-34 5.5 -69 5.5 q-9 0 -23 -1 q-14 -1 -27.5 -2 q-13.5 -1 -25 -3 q-11.5 -2 -16.5 -3 l0 -263 q14 -4 41 -5 q27 -1 54 -1 Z" /><glyph glyph-name="afii10047" unicode="&#x42d;" d="M161 399 l305 0 q-10 116 -73 171.5 q-63 55.5 -163 56.5 q-53 1 -94 -10 q-41 -11 -65 -25 l-24 80 q33 19 84.5 30 q51.5 11 108.5 11 q70 0 130.5 -20 q60.5 -20 105.5 -63.5 q45 -43.5 71 -112.5 q26 -69 26 -167 q0 -99 -30 -168 q-30 -69 -79.5 -112.5 q-49.5 -43.5 -114 -63 q-64.5 -19.5 -133.5 -19.5 q-55 0 -98.5 8.5 q-43.5 8.5 -72.5 19.5 l26 86 q25 -12 65.5 -20 q40.5 -8 86.5 -8 q43 0 85 12.5 q42 12.5 75.5 41 q33.5 28.5 56 74.5 q22.5 46 27.5 112 l-306 0 l0 86 Z" /><glyph glyph-name="afii10048" unicode="&#x42e;" d="M189 401 l130 0 q11 150 88 231 q77 81 214 81 q79 0 136 -26 q57 -26 93 -74 q36 -48 53 -115 q17 -67 17 -148 q0 -173 -75.5 -268 q-75.5 -95 -223.5 -95 q-74 0 -129 23.5 q-55 23.5 -92.5 66 q-37.5 42.5 -57.5 102.5 q-20 60 -24 134 l-129 0 l0 -313 l-100 0 l0 700 l100 0 l0 -299 ZM425 350 q0 -56 10.5 -106.5 q10.5 -50.5 33.5 -88.5 q23 -38 60.5 -60 q37.5 -22 91.5 -22 q97 0 145 67 q48 67 48 210 q0 55 -9.5 105.5 q-9.5 50.5 -32 88.5 q-22.5 38 -59.5 60.5 q-37 22.5 -92 22.5 q-97 0 -146.5 -68 q-49.5 -68 -49.5 -209 Z" /><glyph glyph-name="afii10049" unicode="&#x42f;" d="M535 0 l-100 0 l0 298 l-107 -22 l-187 -276 l-116 0 l169 244 l66 44 q-39 7 -72 22.5 q-33 15.5 -57.5 40.5 q-24.5 25 -38 59 q-13.5 34 -13.5 79 q0 61 23 103 q23 42 62 68 q39 26 92 37.5 q53 11.5 113 11.5 q37 0 81.5 -3.5 q44.5 -3.5 84.5 -12.5 l0 -693 ZM363 623 q-35 0 -67 -6 q-32 -6 -56.5 -21 q-24.5 -15 -39.5 -40.5 q-15 -25.5 -15 -65.5 q0 -37 14 -62.5 q14 -25.5 38.5 -41 q24.5 -15.5 57 -22.5 q32.5 -7 69.5 -7 l71 0 l0 260 q-14 4 -30 5 q-16 1 -42 1 Z" /><glyph glyph-name="afii10066" unicode="&#x431;" d="M155 419 q37 50 83.5 71 q46.5 21 114.5 21 q105 0 163.5 -63 q58.5 -63 58.5 -184 q0 -69 -17.5 -121.5 q-17.5 -52.5 -50.5 -87 q-33 -34.5 -80 -52 q-47 -17.5 -106 -17.5 q-128 0 -192.5 78 q-64.5 78 -64.5 245 q0 90 10 153 q10 63 29.5 105 q19.5 42 47 66.5 q27.5 24.5 61.5 37.5 q34 13 74.5 18 q40.5 5 86.5 9 q58 5 93 11 q35 6 57 21 l10 -81 q-23 -15 -61.5 -21.5 q-38.5 -6.5 -107.5 -11.5 q-48 -3 -85.5 -11 q-37.5 -8 -65.5 -28 q-28 -20 -45 -57.5 q-17 -37.5 -23 -98.5 l10 -2 ZM162 250 q0 -38 9 -71.5 q9 -33.5 28.5 -59 q19.5 -25.5 49.5 -40.5 q30 -15 71 -15 q157 0 157 191 q0 38 -8.5 70.5 q-8.5 32.5 -26 56.5 q-17.5 24 -45 37.5 q-27.5 13.5 -64.5 13.5 q-90 0 -130.5 -47.5 q-40.5 -47.5 -40.5 -135.5 Z" /><glyph glyph-name="afii10067" unicode="&#x432;" d="M88 525 l38 2 q32 2 70 4.5 q38 2.5 88 2.5 q116 0 166.5 -32.5 q50.5 -32.5 50.5 -96.5 q0 -35 -24.5 -70.5 q-24.5 -35.5 -77.5 -51.5 l0 -11 q66 -13 94.5 -44 q28.5 -31 28.5 -82 q0 -79 -65 -116.5 q-65 -37.5 -196 -37.5 q-44 0 -83 2.5 q-39 2.5 -76 5.5 q-4 0 -7 0.5 q-3 0.5 -7 0.5 l0 524 ZM180 72 q22 -3 43 -4.5 q21 -1.5 52 -1.5 q79 0 114 20.5 q35 20.5 35 67.5 q0 19 -7 35 q-7 16 -23 27 q-16 11 -43.5 17.5 q-27.5 6.5 -67.5 6.5 l-103 0 l0 -168 ZM294 303 q22 0 42 6 q20 6 36 17 q16 11 25.5 25.5 q9.5 14.5 9.5 31.5 q0 42 -28.5 58.5 q-28.5 16.5 -97.5 16.5 q-23 0 -46.5 -1.5 q-23.5 -1.5 -54.5 -2.5 l0 -151 l114 0 Z" /><glyph glyph-name="afii10068" unicode="&#x433;" d="M426 447 l-246 0 l0 -447 l-92 0 l0 525 l338 0 l0 -78 Z" /><glyph glyph-name="afii10069" unicode="&#x434;" d="M600 -132 l-63 0 l-16 132 l-442 0 l-18 -132 l-61 0 l0 210 l67 0 q10 12 25.5 42 q15.5 30 30.5 83.5 q15 53.5 26.5 132.5 q11.5 79 12.5 189 l353 0 l0 -447 l85 0 l0 -210 ZM423 78 l0 369 l-178 0 q-3 -45 -9 -96 q-6 -51 -16.5 -100.5 q-10.5 -49.5 -24.5 -94.5 q-14 -45 -33 -78 l261 0 Z" /><glyph glyph-name="afii10072" unicode="&#x436;" d="M278 232 l-164 -232 l-108 0 l175 237 l45 35 l-63 43 l-144 210 l100 0 l153 -227 l66 0 l0 227 l90 0 l0 -238 l60 16 l154 222 l99 0 l-151 -209 l-48 -38 l62 -44 l164 -234 l-111 0 l-164 236 l-65 0 l0 -236 l-90 0 l0 248 l-60 -16 Z" /><glyph glyph-name="afii10073" unicode="&#x437;" d="M148 233 l0 70 l77 0 q22 0 42.5 6 q20.5 6 36.5 16.5 q16 10.5 25.5 25 q9.5 14.5 9.5 31.5 q0 42 -31 58 q-31 16 -94 16 q-44 0 -80.5 -9.5 q-36.5 -9.5 -59.5 -19.5 l-25 70 q65 37 195 37 q94 0 142 -33 q48 -33 48 -96 q0 -17 -6.5 -35 q-6.5 -18 -19.5 -34.5 q-13 -16.5 -31.5 -30 q-18.5 -13.5 -42.5 -20.5 l0 -11 q68 -12 95 -44.5 q27 -32.5 27 -84.5 q0 -33 -15 -61.5 q-15 -28.5 -45 -49.5 q-30 -21 -75.5 -33 q-45.5 -12 -105.5 -12 q-59 0 -97.5 8 q-38.5 8 -69.5 23 l24 73 q27 -14 65 -20 q38 -6 83 -6 q138 0 138 87 q0 39 -33 59 q-33 20 -115 20 l-62 0 Z" /><glyph glyph-name="afii10074" unicode="&#x438;" d="M451 300 l14 104 l-11 0 l-49 -98 l-246 -306 l-71 0 l0 525 l92 0 l0 -310 l-7 -92 l11 0 l46 89 l241 313 l72 0 l0 -525 l-92 0 l0 300 Z" /><glyph glyph-name="afii10076" unicode="&#x43a;" d="M237 236 l-57 0 l0 -236 l-92 0 l0 525 l92 0 l0 -239 l55 18 l179 221 l101 0 l-171 -204 l1 0 l-54 -39 l65 -45 l185 -237 l-116 0 l-188 236 Z" /><glyph glyph-name="afii10077" unicode="&#x43b;" d="M404 447 l-170 0 l-2 -30 q-7 -99 -16.5 -177.5 q-9.5 -78.5 -27.5 -133 q-18 -54.5 -48 -83 q-30 -28.5 -78 -28.5 q-22 0 -39 2.5 q-17 2.5 -29 7.5 l14 84 q13 -4 29 -4 q24 0 43 17.5 q19 17.5 33 65.5 q14 48 23 134 q9 86 13 223 l347 0 l0 -525 l-92 0 l0 447 Z" /><glyph glyph-name="afii10078" unicode="&#x43c;" d="M574 297 l6 107 l-12 0 l-45 -82 l-135 -199 l-31 0 l-142 199 l-40 82 l-11 0 l9 -106 l0 -298 l-85 0 l0 525 l96 0 l157 -231 l38 -73 l42 75 l147 229 l96 0 l0 -525 l-90 0 l0 297 Z" /><glyph glyph-name="afii10079" unicode="&#x43d;" d="M444 229 l-264 0 l0 -229 l-92 0 l0 525 l92 0 l0 -214 l264 0 l0 214 l92 0 l0 -525 l-92 0 l0 229 Z" /><glyph glyph-name="afii10081" unicode="&#x43f;" d="M438 447 l-258 0 l0 -447 l-92 0 l0 525 l442 0 l0 -525 l-92 0 l0 447 Z" /><glyph glyph-name="afii10084" unicode="&#x442;" d="M456 447 l-182 0 l0 -447 l-92 0 l0 447 l-182 0 l0 78 l456 0 l0 -78 Z" /><glyph glyph-name="afii10086" unicode="&#x444;" d="M355 -3 q-24 -8 -45.5 -9.5 q-21.5 -1.5 -38.5 -1.5 q-104 0 -160.5 68.5 q-56.5 68.5 -56.5 207.5 q0 131 62 202 q62 71 180 71 q14 0 28.5 -1 q14.5 -1 30.5 -5 l0 171 l90 0 l0 -172 q26 5 43 6 q17 1 30 1 q113 0 170.5 -62 q57.5 -62 57.5 -200 q0 -64 -15.5 -117 q-15.5 -53 -45 -90.5 q-29.5 -37.5 -73 -58.5 q-43.5 -21 -98.5 -21 q-11 0 -32 2.5 q-21 2.5 -37 7.5 l0 -196 l-90 0 l0 197 ZM498 461 q-16 0 -27 -1 q-11 -1 -28 -6 l0 -390 q15 -3 29.5 -3.5 q14.5 -0.5 31.5 -0.5 q74 0 111 55 q37 55 37 158 q0 43 -8 78 q-8 35 -26 59.5 q-18 24.5 -47.5 37.5 q-29.5 13 -72.5 13 ZM297 60 q13 0 26.5 1 q13.5 1 33.5 5 l0 388 q-18 4 -30 5.5 q-12 1.5 -28 1.5 q-72 0 -111.5 -48.5 q-39.5 -48.5 -39.5 -150.5 q0 -43 8.5 -80 q8.5 -37 27 -64 q18.5 -27 46.5 -42.5 q28 -15.5 67 -15.5 Z" /><glyph glyph-name="afii10088" unicode="&#x446;" d="M610 -132 l-62 0 l-17 132 l-443 0 l0 525 l92 0 l0 -447 l253 0 l0 447 l92 0 l0 -447 l85 0 l0 -210 Z" /><glyph glyph-name="afii10089" unicode="&#x447;" d="M152 525 l0 -129 q0 -32 3.5 -57 q3.5 -25 15 -43 q11.5 -18 32 -27.5 q20.5 -9.5 53.5 -9.5 q51 0 85.5 11.5 q34.5 11.5 52.5 25.5 l0 229 l92 0 l0 -525 l-92 0 l0 223 q-19 -12 -58 -27 q-39 -15 -104 -15 q-42 0 -74.5 9 q-32.5 9 -54 31 q-21.5 22 -32.5 58.5 q-11 36.5 -11 91.5 l0 154 l92 0 Z" /><glyph glyph-name="afii10090" unicode="&#x448;" d="M88 0 l0 525 l92 0 l0 -447 l202 0 l0 447 l92 0 l0 -447 l202 0 l0 447 l92 0 l0 -525 l-680 0 Z" /><glyph glyph-name="afii10091" unicode="&#x449;" d="M852 -132 l-61 0 l-17 132 l-686 0 l0 525 l92 0 l0 -447 l202 0 l0 447 l92 0 l0 -447 l202 0 l0 447 l92 0 l0 -447 l84 0 l0 -210 Z" /><glyph glyph-name="afii10092" unicode="&#x44a;" d="M227 78 q43 -6 86 -6 q73 0 107.5 25.5 q34.5 25.5 34.5 70.5 q0 40 -33.5 67 q-33.5 27 -105.5 27 q-20 0 -43 -1.5 q-23 -1.5 -46 -6.5 l0 -176 ZM227 324 q32 5 60 6.5 q28 1.5 49 1.5 q59 0 100.5 -12 q41.5 -12 67.5 -33 q26 -21 37.5 -49.5 q11.5 -28.5 11.5 -61.5 q0 -95 -63 -138.5 q-63 -43.5 -196 -43.5 q-42 0 -81 1 q-39 1 -78 4 l0 448 l-129 0 l0 78 l221 0 l0 -201 Z" /><glyph glyph-name="afii10093" unicode="&#x44b;" d="M180 78 q42 -6 86 -6 q72 0 101 25 q29 25 29 71 q0 40 -28.5 67 q-28.5 27 -98.5 27 q-19 0 -42.5 -1.5 q-23.5 -1.5 -46.5 -6.5 l0 -176 ZM180 324 q32 5 59.5 6.5 q27.5 1.5 49.5 1.5 q58 0 97.5 -12 q39.5 -12 63.5 -33 q24 -21 34 -49.5 q10 -28.5 10 -61.5 q0 -95 -58 -138.5 q-58 -43.5 -189 -43.5 q-42 0 -81 1 q-39 1 -78 4 l0 526 l92 0 l0 -201 ZM591 525 l92 0 l0 -525 l-92 0 l0 525 Z" /><glyph glyph-name="afii10094" unicode="&#x44c;" d="M180 78 q42 -6 85 -6 q73 0 107.5 25.5 q34.5 25.5 34.5 70.5 q0 40 -33.5 67 q-33.5 27 -105.5 27 q-19 0 -42 -1.5 q-23 -1.5 -46 -6.5 l0 -176 ZM180 324 q32 5 59 6.5 q27 1.5 48 1.5 q60 0 101.5 -12 q41.5 -12 67.5 -33 q26 -21 37.5 -49.5 q11.5 -28.5 11.5 -61.5 q0 -95 -63 -138.5 q-63 -43.5 -197 -43.5 q-42 0 -80 1 q-38 1 -77 4 l0 526 l92 0 l0 -201 Z" /><glyph glyph-name="afii10095" unicode="&#x44d;" d="M143 304 l241 0 q-6 72 -47.5 115 q-41.5 43 -119.5 43 q-47 0 -81.5 -12.5 q-34.5 -12.5 -57.5 -26.5 l-30 68 q35 23 81 36 q46 13 108 13 q63 0 109.5 -19 q46.5 -19 77 -55 q30.5 -36 45 -87.5 q14.5 -51.5 14.5 -116.5 q0 -134 -68 -205 q-68 -71 -187 -71 q-54 0 -102 8.5 q-48 8.5 -78 25.5 l25 76 q27 -14 65 -23 q38 -9 76 -9 q81 0 122.5 38.5 q41.5 38.5 48.5 123.5 l-242 0 l0 78 Z" /><glyph glyph-name="afii10096" unicode="&#x44e;" d="M543 -14 q-62 0 -106 18 q-44 18 -73 50 q-29 32 -43.5 77.5 q-14.5 45.5 -18.5 100.5 l-122 0 l0 -232 l-92 0 l0 525 l92 0 l0 -215 l123 0 q10 109 68.5 169.5 q58.5 60.5 173.5 60.5 q63 0 107.5 -20.5 q44.5 -20.5 73 -57.5 q28.5 -37 42 -88 q13.5 -51 13.5 -112 q0 -130 -59 -203 q-59 -73 -179 -73 ZM394 262 q0 -41 7 -77 q7 -36 24 -63 q17 -27 46 -42.5 q29 -15.5 73 -15.5 q75 0 107 48 q32 48 32 150 q0 40 -6.5 76.5 q-6.5 36.5 -22.5 64 q-16 27.5 -43 43.5 q-27 16 -68 16 q-79 0 -114 -48.5 q-35 -48.5 -35 -151.5 Z" /><glyph glyph-name="afii10097" unicode="&#x44f;" d="M398 207 l-95 -13 l-149 -194 l-114 0 l132 172 l0 -1 l56 38 q-70 8 -110.5 49.5 q-40.5 41.5 -40.5 101.5 q0 47 18 81 q18 34 51.5 56 q33.5 22 81 32 q47.5 10 106.5 10 q38 0 79.5 -5 q41.5 -5 76.5 -13 l0 -521 l-92 0 l0 207 ZM398 264 l0 189 q-16 5 -36.5 6.5 q-20.5 1.5 -35.5 1.5 q-75 0 -113 -24 q-38 -24 -38 -76 q0 -50 44.5 -75 q44.5 -25 116.5 -23 l62 1 Z" /><glyph glyph-name="afii10099" unicode="&#x452;" d="M0 600 l97 0 l0 100 l92 0 l0 -100 l168 0 l0 -66 l-168 0 l0 -162 l11 0 q31 36 73 57 q42 21 104 21 q48 0 83.5 -10.5 q35.5 -10.5 58.5 -37 q23 -26.5 34 -71 q11 -44.5 11 -113.5 l0 -242 q0 -93 -33.5 -137.5 q-33.5 -44.5 -109.5 -44.5 q-20 0 -42 3 l0 75 q31 -1 49 6.5 q18 7.5 28 23.5 q10 16 13 41 q3 25 3 58 l0 200 q0 42 -5.5 73.5 q-5.5 31.5 -20 53.5 q-14.5 22 -39 33 q-24.5 11 -62.5 11 q-27 0 -52.5 -9.5 q-25.5 -9.5 -46.5 -26.5 q-21 -17 -36 -40.5 q-15 -23.5 -21 -51.5 l0 -244 l-92 0 l0 534 l-97 0 l0 66 Z" /><glyph glyph-name="afii10101" unicode="&#x454;" d="M506 35 q-35 -23 -84 -36 q-49 -13 -101 -13 q-66 0 -115 20 q-49 20 -81.5 56 q-32.5 36 -48.5 87 q-16 51 -16 113 q0 66 19.5 118 q19.5 52 54.5 87 q35 35 84.5 53.5 q49.5 18.5 108.5 18.5 q56 0 97 -8.5 q41 -8.5 72 -22.5 l-25 -78 q-28 14 -61 22.5 q-33 8.5 -70 8.5 q-78 0 -124.5 -37.5 q-46.5 -37.5 -57.5 -118.5 l265 0 l0 -78 l-265 0 q4 -34 16.5 -64 q12.5 -30 35.5 -52 q23 -22 57 -34.5 q34 -12.5 82 -12.5 q40 0 74 12 q34 12 57 27 l26 -68 Z" /><glyph glyph-name="afii10104" unicode="&#x457;" d="M40 649 q0 24 14 39.5 q14 15.5 39 15.5 q26 0 39.5 -15.5 q13.5 -15.5 13.5 -39.5 q0 -22 -13.5 -37 q-13.5 -15 -39.5 -15 q-25 0 -39 15 q-14 15 -14 37 ZM191 649 q0 24 13.5 39.5 q13.5 15.5 38.5 15.5 q26 0 40 -15.5 q14 -15.5 14 -39.5 q0 -22 -14 -37 q-14 -15 -40 -15 q-25 0 -38.5 15 q-13.5 15 -13.5 37 ZM125 525 l92 0 l0 -525 l-92 0 l0 525 Z" /><glyph glyph-name="afii10106" unicode="&#x459;" d="M496 324 q32 5 59 6.5 q27 1.5 48 1.5 q60 0 101.5 -12 q41.5 -12 67.5 -33 q26 -21 37.5 -49.5 q11.5 -28.5 11.5 -61.5 q0 -95 -63 -138.5 q-63 -43.5 -197 -43.5 q-42 0 -80 1 q-38 1 -77 4 l0 448 l-170 0 l-2 -30 q-7 -99 -16.5 -177.5 q-9.5 -78.5 -27.5 -133 q-18 -54.5 -48 -83 q-30 -28.5 -78 -28.5 q-22 0 -39 2.5 q-17 2.5 -29 7.5 l14 84 q13 -4 29 -4 q24 0 43 17.5 q19 17.5 33 65.5 q14 48 23 134 q9 86 13 223 l347 0 l0 -201 ZM496 78 q42 -6 85 -6 q73 0 107.5 25.5 q34.5 25.5 34.5 70.5 q0 40 -33.5 67 q-33.5 27 -105.5 27 q-19 0 -42 -1.5 q-23 -1.5 -46 -6.5 l0 -176 Z" /><glyph glyph-name="afii10107" unicode="&#x45a;" d="M547 79 q28 -4 52 -5.5 q24 -1.5 44 -1.5 q82 0 113.5 25.5 q31.5 25.5 31.5 77.5 q0 22 -7 39.5 q-7 17.5 -23.5 30 q-16.5 12.5 -43.5 19 q-27 6.5 -67 6.5 q-20 0 -45.5 -2 q-25.5 -2 -54.5 -8 l0 -181 ZM547 336 q37 7 68.5 9.5 q31.5 2.5 52.5 2.5 q62 0 103.5 -13 q41.5 -13 67 -35.5 q25.5 -22.5 36.5 -52.5 q11 -30 11 -64 q0 -99 -61.5 -144 q-61.5 -45 -202.5 -45 q-42 0 -84 3 q-42 3 -83 6 l0 227 l-275 0 l0 -230 l-92 0 l0 525 l92 0 l0 -213 l275 0 l0 213 l92 0 l0 -189 Z" /><glyph glyph-name="afii10108" unicode="&#x45b;" d="M0 600 l94 0 l0 101 l92 0 l0 -101 l171 0 l0 -66 l-171 0 l0 -162 l12 0 q32 36 73.5 56.5 q41.5 20.5 103.5 20.5 q48 0 83 -10 q35 -10 58 -36 q23 -26 34 -70.5 q11 -44.5 11 -112.5 l0 -220 l-92 0 l0 199 q0 43 -5.5 75 q-5.5 32 -20 53.5 q-14.5 21.5 -39 32.5 q-24.5 11 -62.5 11 q-27 0 -52 -9.5 q-25 -9.5 -46 -26.5 q-21 -17 -36 -39.5 q-15 -22.5 -22 -49.5 l0 -246 l-92 0 l0 534 l-94 0 l0 66 Z" /><glyph glyph-name="afii10193" unicode="&#x45f;" d="M180 525 l0 -447 l258 0 l0 447 l92 0 l0 -525 l-169 0 l-16 -178 l-63 0 l-22 178 l-172 0 l0 525 l92 0 Z" /><glyph glyph-name="afii10050" unicode="&#x490;" d="M420 700 l18 138 l66 0 l0 -226 l-315 0 l0 -612 l-100 0 l0 700 l331 0 Z" /><glyph glyph-name="afii10098" unicode="&#x491;" d="M342 525 l18 138 l66 0 l0 -216 l-246 0 l0 -447 l-92 0 l0 525 l254 0 Z" /><glyph glyph-name="uni04B0" unicode="&#x4b0;" d="M95 287 l158 0 l-246 413 l117 0 l175 -297 l17 -64 l2 0 l19 66 l167 295 l106 0 l-242 -413 l159 0 l0 -70 l-166 0 l0 -217 l-100 0 l0 217 l-166 0 l0 70 Z" /><glyph glyph-name="uni04B1" unicode="&#x4b1;" d="M100 1 l133 0 l-225 524 l107 0 l136 -336 l31 -125 l8 0 l31 126 l122 335 l100 0 l-215 -524 l134 0 l0 -66 l-135 0 l0 -136 l-92 0 l0 136 l-135 0 l0 66 Z" /><glyph glyph-name="endash" unicode="&#x2013;" d="M128 331 l468 0 l0 -86 l-468 0 l0 86 Z" /><glyph glyph-name="emdash" unicode="&#x2014;" d="M128 331 l643 0 l0 -86 l-643 0 l0 86 Z" /><glyph glyph-name="quoteleft" unicode="&#x2018;" d="M174 619 q0 -24 -17 -38 q-17 -14 -43 -14 q-32 0 -51 19 q-19 19 -19 56 q0 34 10.5 59 q10.5 25 25.5 41.5 q15 16.5 32 26.5 q17 10 30 14 l27 -40 q-24 -11 -39 -29 q-15 -18 -13 -44 q26 5 41.5 -10 q15.5 -15 15.5 -41 Z" /><glyph glyph-name="quoteright" unicode="&#x2019;" d="M44 655 q0 24 16.5 38.5 q16.5 14.5 42.5 14.5 q32 0 51.5 -19 q19.5 -19 19.5 -56 q0 -35 -11 -60 q-11 -25 -26.5 -42 q-15.5 -17 -32.5 -26.5 q-17 -9.5 -29 -13.5 l-28 41 q24 11 39.5 28.5 q15.5 17.5 14.5 43.5 q-26 -5 -41.5 10 q-15.5 15 -15.5 41 Z" /><glyph glyph-name="quotesinglbase" unicode="&#x201a;" d="M44 51 q0 24 16.5 38.5 q16.5 14.5 42.5 14.5 q32 0 51.5 -19 q19.5 -19 19.5 -56 q0 -35 -11 -60 q-11 -25 -26.5 -42 q-15.5 -17 -32.5 -26.5 q-17 -9.5 -29 -13.5 l-28 41 q24 11 39.5 28.5 q15.5 17.5 14.5 43.5 q-26 -5 -41.5 10 q-15.5 15 -15.5 41 Z" /><glyph glyph-name="quotedblleft" unicode="&#x201c;" d="M336 619 q0 -24 -17 -38 q-17 -14 -43 -14 q-32 0 -51 19 q-19 19 -19 56 q0 34 10.5 59 q10.5 25 25.5 41.5 q15 16.5 32 26.5 q17 10 30 14 l27 -40 q-24 -11 -39 -29 q-15 -18 -13 -44 q26 5 41.5 -10 q15.5 -15 15.5 -41 ZM174 619 q0 -24 -17 -38 q-17 -14 -43 -14 q-32 0 -51 19 q-19 19 -19 56 q0 34 10.5 59 q10.5 25 25.5 41.5 q15 16.5 32 26.5 q17 10 30 14 l27 -40 q-24 -11 -39 -29 q-15 -18 -13 -44 q26 5 41.5 -10 q15.5 -15 15.5 -41 Z" /><glyph glyph-name="quotedblright" unicode="&#x201d;" d="M206 654 q0 24 16.5 38.5 q16.5 14.5 42.5 14.5 q32 0 51.5 -19 q19.5 -19 19.5 -56 q0 -35 -11 -60 q-11 -25 -26.5 -42 q-15.5 -17 -32.5 -26.5 q-17 -9.5 -29 -13.5 l-28 41 q24 11 39.5 28.5 q15.5 17.5 14.5 43.5 q-26 -5 -41.5 10 q-15.5 15 -15.5 41 ZM44 654 q0 24 16.5 38.5 q16.5 14.5 42.5 14.5 q32 0 51.5 -19 q19.5 -19 19.5 -56 q0 -35 -11 -60 q-11 -25 -26.5 -42 q-15.5 -17 -32.5 -26.5 q-17 -9.5 -29 -13.5 l-28 41 q24 11 39.5 28.5 q15.5 17.5 14.5 43.5 q-26 -5 -41.5 10 q-15.5 15 -15.5 41 Z" /><glyph glyph-name="quotedblbase" unicode="&#x201e;" d="M44 51 q0 24 16.5 38.5 q16.5 14.5 42.5 14.5 q32 0 51.5 -19 q19.5 -19 19.5 -56 q0 -35 -11 -60 q-11 -25 -26.5 -42 q-15.5 -17 -32.5 -26.5 q-17 -9.5 -29 -13.5 l-28 41 q24 11 39.5 28.5 q15.5 17.5 14.5 43.5 q-26 -5 -41.5 10 q-15.5 15 -15.5 41 ZM206 51 q0 24 16.5 38.5 q16.5 14.5 42.5 14.5 q32 0 51.5 -19 q19.5 -19 19.5 -56 q0 -35 -11 -60 q-11 -25 -26.5 -42 q-15.5 -17 -32.5 -26.5 q-17 -9.5 -29 -13.5 l-28 41 q24 11 39.5 28.5 q15.5 17.5 14.5 43.5 q-26 -5 -41.5 10 q-15.5 15 -15.5 41 Z" /><glyph glyph-name="dagger" unicode="&#x2020;" d="M44 506 l141 0 l49 -12 l-12 48 l0 158 l92 0 l0 -158 l-13 -48 l49 12 l141 0 l0 -84 l-143 0 l-47 12 l13 -44 l0 -390 l-16 -200 l-60 0 l-16 201 l0 389 l12 44 l-49 -12 l-141 0 l0 84 Z" /><glyph glyph-name="daggerdbl" unicode="&#x2021;" d="M222 392 l12 42 l-49 -12 l-141 0 l0 84 l141 0 l49 -12 l-12 47 l0 159 l92 0 l0 -159 l-13 -47 l49 12 l141 0 l0 -84 l-143 0 l-47 12 l13 -42 l0 -112 l-13 -42 l47 12 l143 0 l0 -84 l-141 0 l-49 12 l13 -47 l0 -131 l-17 -200 l-58 0 l-17 201 l0 130 l12 47 l-49 -12 l-141 0 l0 84 l141 0 l49 -12 l-12 42 l0 112 Z" /><glyph glyph-name="bullet" unicode="&#x2022;" d="M93 311 q0 31 12.5 57 q12.5 26 33.5 45 q21 19 49 29.5 q28 10.5 59 10.5 q31 0 59.5 -10 q28.5 -10 49.5 -28 q21 -18 33.5 -44.5 q12.5 -26.5 12.5 -59.5 q0 -33 -12.5 -59.5 q-12.5 -26.5 -33.5 -44.5 q-21 -18 -49 -28 q-28 -10 -59 -10 q-32 0 -60 10 q-28 10 -49 28 q-21 18 -33.5 44.5 q-12.5 26.5 -12.5 59.5 Z" /><glyph glyph-name="ellipsis" unicode="&#x2026;" d="M618 51 q0 29 18.5 46 q18.5 17 48.5 17 q30 0 48.5 -17 q18.5 -17 18.5 -46 q0 -27 -18.5 -45 q-18.5 -18 -48.5 -18 q-30 0 -48.5 18 q-18.5 18 -18.5 45 ZM345 51 q0 29 18.5 46 q18.5 17 48.5 17 q30 0 48.5 -17 q18.5 -17 18.5 -46 q0 -27 -18.5 -45 q-18.5 -18 -48.5 -18 q-30 0 -48.5 18 q-18.5 18 -18.5 45 ZM72 51 q0 29 18.5 46 q18.5 17 48.5 17 q30 0 48.5 -17 q18.5 -17 18.5 -46 q0 -27 -18.5 -45 q-18.5 -18 -48.5 -18 q-30 0 -48.5 18 q-18.5 18 -18.5 45 Z" /><glyph glyph-name="perthousand" unicode="&#x2030;" d="M74 542 q0 44 13 76 q13 32 36 53 q23 21 54.5 31 q31.5 10 68.5 10 q37 0 68.5 -9.5 q31.5 -9.5 55 -29.5 q23.5 -20 36.5 -52.5 q13 -32.5 13 -78.5 q0 -46 -13 -78.5 q-13 -32.5 -36.5 -52.5 q-23.5 -20 -55 -29.5 q-31.5 -9.5 -68.5 -9.5 q-37 0 -68.5 9.5 q-31.5 9.5 -54.5 29.5 q-23 20 -36 52.5 q-13 32.5 -13 78.5 ZM162 542 q0 -54 21.5 -79.5 q21.5 -25.5 62.5 -25.5 q40 0 62.5 23 q22.5 23 22.5 82 q0 60 -22 82.5 q-22 22.5 -63 22.5 q-40 0 -62 -22.5 q-22 -22.5 -22 -82.5 ZM469 170 q0 44 13 76 q13 32 36 53 q23 21 54.5 31 q31.5 10 68.5 10 q37 0 68.5 -9.5 q31.5 -9.5 55 -29.5 q23.5 -20 36.5 -52.5 q13 -32.5 13 -78.5 q0 -46 -13 -78.5 q-13 -32.5 -36.5 -52.5 q-23.5 -20 -55 -29.5 q-31.5 -9.5 -68.5 -9.5 q-37 0 -68.5 9.5 q-31.5 9.5 -54.5 29.5 q-23 20 -36 52.5 q-13 32.5 -13 78.5 ZM557 170 q0 -54 21.5 -79.5 q21.5 -25.5 62.5 -25.5 q40 0 62.5 23 q22.5 23 22.5 82 q0 60 -22 82.5 q-22 22.5 -63 22.5 q-40 0 -62 -22.5 q-22 -22.5 -22 -82.5 ZM863 170 q0 44 13 76 q13 32 36 53 q23 21 54.5 31 q31.5 10 68.5 10 q37 0 68.5 -9.5 q31.5 -9.5 55 -29.5 q23.5 -20 36.5 -52.5 q13 -32.5 13 -78.5 q0 -46 -13 -78.5 q-13 -32.5 -36.5 -52.5 q-23.5 -20 -55 -29.5 q-31.5 -9.5 -68.5 -9.5 q-37 0 -68.5 9.5 q-31.5 9.5 -54.5 29.5 q-23 20 -36 52.5 q-13 32.5 -13 78.5 ZM951 170 q0 -54 21.5 -79.5 q21.5 -25.5 62.5 -25.5 q40 0 62.5 23 q22.5 23 22.5 82 q0 60 -22 82.5 q-22 22.5 -63 22.5 q-40 0 -62 -22.5 q-22 -22.5 -22 -82.5 ZM702 713 l58 -48 l-572 -678 l-57 49 l571 677 Z" /><glyph glyph-name="guilsinglleft" unicode="&#x2039;" d="M40 259 l176 230 l59 -53 l-101 -135 l-53 -41 l53 -36 l108 -132 l-60 -54 l-182 221 Z" /><glyph glyph-name="guilsinglright" unicode="&#x203a;" d="M286 268 l-176 -230 l-60 52 l102 136 l53 41 l-53 36 l-108 133 l60 53 l182 -221 Z" /><glyph glyph-name="fraction" unicode="&#x2044;" d="M333 714 l60 -43 l-524 -684 l-60 45 l524 682 Z" /><glyph glyph-name="Euro" unicode="&#x20ac;" d="M28 462 l69 0 q13 66 42 113.5 q29 47.5 69 78 q40 30.5 89.5 45 q49.5 14.5 104.5 14.5 q57 0 98 -8 q41 -8 71 -19 l-27 -80 q-25 11 -58.5 17 q-33.5 6 -81.5 6 q-36 0 -69 -9 q-33 -9 -60 -29.5 q-27 -20.5 -47.5 -52 q-20.5 -31.5 -31.5 -76.5 l305 0 l-20 -74 l-295 0 q-1 -10 -1 -19.5 q0 -9.5 0 -19.5 q0 -9 0 -17.5 q0 -8.5 1 -16.5 l273 0 l-20 -75 l-244 0 q42 -169 224 -169 q44 0 78.5 10 q34.5 10 60.5 24 l23 -74 q-33 -25 -83 -34.5 q-50 -9.5 -98 -9.5 q-122 0 -201.5 61.5 q-79.5 61.5 -102.5 191.5 l-89 0 l21 75 l60 0 q-1 8 -1 17 q0 9 0 18 q0 10 0 19.5 q0 9.5 1 19.5 l-81 0 l21 73 Z" /><glyph glyph-name="afii61352" unicode="&#x2116;" d="M731 314 l309 0 l0 -84 l-309 0 l0 84 ZM237 438 l-61 100 l-4 0 l12 -96 l0 -442 l-95 0 l0 710 l57 0 l336 -446 l57 -97 l5 0 l-12 93 l0 440 l95 0 l0 -710 l-57 0 l-333 448 ZM710 542 q0 44 13 76 q13 32 36 53 q23 21 54.5 31 q31.5 10 68.5 10 q37 0 68.5 -9.5 q31.5 -9.5 55 -29.5 q23.5 -20 36.5 -52.5 q13 -32.5 13 -78.5 q0 -46 -13 -78.5 q-13 -32.5 -36.5 -52.5 q-23.5 -20 -55 -29.5 q-31.5 -9.5 -68.5 -9.5 q-37 0 -68.5 9.5 q-31.5 9.5 -54.5 29.5 q-23 20 -36 52.5 q-13 32.5 -13 78.5 ZM798 542 q0 -54 21.5 -79.5 q21.5 -25.5 62.5 -25.5 q40 0 62.5 23 q22.5 23 22.5 82 q0 60 -22 82.5 q-22 22.5 -63 22.5 q-40 0 -62 -22.5 q-22 -22.5 -22 -82.5 Z" /><glyph glyph-name="minus" unicode="&#x2212;" d="M43 379 l468 0 l0 -84 l-468 0 l0 84 Z" /></font>
</defs>
</svg>
