<svg xmlns="http://www.w3.org/2000/svg" width="51" height="47"><g fill="none" fill-rule="evenodd" stroke="#FFF" stroke-width="2"><path stroke-linecap="round" d="M44.065 20.668c.765.17 2.212.51 4.34 1.02.862.207 1.47.978 1.47 1.864v20.531A1.917 1.917 0 0147.958 46H2.917A1.917 1.917 0 011 44.083v-20.53c0-.887.608-1.658 1.47-1.864a444.45 444.45 0 014.33-1.018"/><path d="M10.46 24.413c.542 2.772 7.16 5.27 14.916 5.254 8.015-.017 14.15-2.76 15.202-6.756l.353-1.337c.412-1.553.647-2.474.877-3.457 1.803-7.73 1.157-12.358-3.345-15.827C36.64.885 34.13.67 32.558 1.394c-6.117 2.814-7 2.84-12.585.432C17.503.76 15.38.59 13.13 2.096 9.9 4.252 8.426 6.801 8.175 10.143c-.196 2.614.112 4.46 1.545 10.813.325 1.438.54 2.433.74 3.456z"/><path stroke-dasharray="3" stroke-linecap="round" d="M13.745 31.442a26.268 26.268 0 0011.33 2.551c4.359 0 8.47-1.057 12.092-2.929M15.62 35.178a26.309 26.309 0 009.456 1.746 26.3 26.3 0 009.955-1.944M17.91 38.869c2.278.641 4.682.985 7.166.985 2.658 0 5.224-.394 7.644-1.125"/></g></svg>