<svg xmlns="http://www.w3.org/2000/svg" width="53" height="44"><g fill="none" fill-rule="evenodd" transform="translate(-231 -865)"><rect width="307" height="111" x="210" y="831" fill="url(#a)" rx="4"/><g stroke-linecap="round" stroke-width="2"><path stroke="#3CA9AE" d="M270.739 884.591c.688.154 1.99.46 3.904.919.776.186 1.323.88 1.323 1.676v18.47c0 .951-.772 1.723-1.725 1.723h-40.517a1.724 1.724 0 01-1.724-1.724v-18.468c0-.798.547-1.491 1.323-1.677a376.96 376.96 0 013.895-.916"/><path stroke="#FFF" stroke-dasharray="1,4" d="M270.739 884.591c.688.154 1.99.46 3.904.919.776.186 1.323.88 1.323 1.676 3.819-.101 5.728 2.913 5.728 9.044 0 6.13-1.91 9.272-5.728 9.425 0 .952-.772 1.724-1.725 1.724h-40.517a1.724 1.724 0 01-1.724-1.724v-18.468c0-.798.547-1.491 1.323-1.677a376.96 376.96 0 013.895-.916"/><path stroke="#FFF" d="M260.933 866c-1.983 0-4.074 1.205-5.603 2.086-.364.21-1.094.72-1.347.72-.252 0-.978-.509-1.342-.719-1.524-.88-3.61-2.087-5.608-2.087-2.524 0-4.841 1.084-6.525 3.053-1.595 1.866-2.474 4.32-2.474 6.911 0 3.624 1.24 8.765 3.319 13.753.925 2.222 1.912 4.144 2.853 5.56 1.173 1.762 2.211 2.62 3.175 2.62.463 0 1.307-.197 1.761-1.511.379-1.093.718-2.343 1.078-3.672.82-3.02 2.057-7.584 3.703-7.584h.12c.703 0 1.36.69 2.009 2.11.69 1.51 1.22 3.54 1.734 5.504.343 1.316.668 2.559 1.036 3.637.446 1.309 1.283 1.505 1.743 1.505.96 0 1.998-.87 3.173-2.659.939-1.43 1.927-3.37 2.858-5.612 2.089-5.027 3.335-10.13 3.335-13.65 0-2.592-.879-5.046-2.474-6.912-1.683-1.969-4-3.053-6.524-3.053z"/></g></g></svg>