<svg xmlns="http://www.w3.org/2000/svg" width="50" height="48"><g fill="none" fill-rule="evenodd" stroke="#FFF" stroke-width="2"><rect width="48" height="46" x="1" y="1" rx="4"/><path d="M25.5 36C38.479 36 49 30.851 49 24.5S43.949 13 25.5 13C7.051 13 2 18.149 2 24.5S12.521 36 25.5 36z"/><g transform="translate(10 13)"><ellipse cx="12" cy="5" rx="4" ry="5"/><ellipse cx="20" cy="5" rx="4" ry="5"/><path d="M25.546.841a4 4 0 106.173 1.682M.49 2.078A4 4 0 106.23.68"/></g><g transform="matrix(1 0 0 -1 10 36)"><ellipse cx="12" cy="5" rx="4" ry="5"/><ellipse cx="20" cy="5" rx="4" ry="5"/><path d="M25.546.841A4 4 0 1032 4M.094 3.135A4 4 0 106.23.68"/></g></g></svg>