<svg xmlns="http://www.w3.org/2000/svg" width="51" height="48"><g fill="none" fill-rule="evenodd" stroke="#FFF" stroke-linecap="round" stroke-width="2"><path d="M44.065 21.668c.765.17 2.212.51 4.34 1.02.862.207 1.47.978 1.47 1.864v20.531A1.917 1.917 0 0147.958 47H2.917A1.917 1.917 0 011 45.083v-20.53c0-.887.608-1.658 1.47-1.864a333.27 333.27 0 014.787-1.12"/><path stroke-dasharray="3,5" d="M33.164 1c-2.205 0-4.53 1.34-6.228 2.319-.406.233-1.217.8-1.498.8-.28 0-1.088-.565-1.493-.799C22.252 2.34 19.932 1 17.711 1c-2.806 0-5.381 1.205-7.252 3.394-1.774 2.074-2.75 4.803-2.75 7.683 0 4.028 1.378 9.744 3.688 15.289 1.03 2.47 2.126 4.606 3.172 6.18 1.304 1.96 2.458 2.912 3.53 2.912.514 0 1.452-.218 1.958-1.679.42-1.216.797-2.604 1.198-4.082.91-3.357 2.287-8.431 4.116-8.431h.133c.782 0 1.512.767 2.233 2.346.768 1.679 1.357 3.936 1.928 6.119.382 1.462.743 2.844 1.152 4.043.496 1.455 1.427 1.672 1.938 1.673 1.067 0 2.22-.967 3.527-2.956 1.044-1.59 2.143-3.747 3.178-6.24 2.32-5.587 3.707-11.26 3.707-15.174 0-2.88-.977-5.609-2.75-7.683C38.546 2.205 35.97 1 33.164 1z"/></g></svg>